<?xml version="1.0" encoding="utf-8"?>
<!-- Generator: Adobe Illustrator 18.1.1, SVG Export Plug-In . SVG Version: 6.00 Build 0)  -->
<!DOCTYPE svg PUBLIC "-//W3C//DTD SVG 1.1//EN" "http://www.w3.org/Graphics/SVG/1.1/DTD/svg11.dtd">
<svg version="1.1" id="Layer_1" xmlns="http://www.w3.org/2000/svg" xmlns:xlink="http://www.w3.org/1999/xlink" x="0px" y="0px"
	 viewBox="328.5 23.3 32 32" enable-background="new 328.5 23.3 32 32" xml:space="preserve">
<polygon points="358.9,30.4 349,30.4 349,34.4 358.9,34.4 358.9,30.4 "/>
<polygon points="358.9,37.3 349,37.3 349,41.3 358.9,41.3 358.9,37.3 "/>
<polygon points="358.9,44.2 353,44.2 353,48.1 358.9,48.1 358.9,44.2 "/>
<path d="M347.9,48.1h-17.9c0-1-0.2-2.9,2.4-3.5c2.2-0.5,4.9-1.8,4.1-3.5c-0.5,0.8-2.1,1.3-3.3,0.6c3.5-0.9-1.7-7,2.9-10.4
	c1.7-1.3,4.1-1.3,5.8,0c4.6,3.4-0.7,9.5,2.9,10.4c-1.2,0.7-2.8,0.2-3.3-0.6c-0.8,1.7,1.9,3,4.1,3.5
	C348.1,45.2,347.9,47.2,347.9,48.1z"/>
</svg>
