<?xml version="1.0" encoding="utf-8"?>
<!-- Generator: Adobe Illustrator 18.1.1, SVG Export Plug-In . SVG Version: 6.00 Build 0)  -->
<!DOCTYPE svg PUBLIC "-//W3C//DTD SVG 1.1//EN" "http://www.w3.org/Graphics/SVG/1.1/DTD/svg11.dtd">
<svg version="1.1" id="Layer_1" xmlns="http://www.w3.org/2000/svg" xmlns:xlink="http://www.w3.org/1999/xlink" x="0px" y="0px"
	 viewBox="1600 23.3 32 32" enable-background="new 1600 23.3 32 32" xml:space="preserve">
<g>
	<path d="M1623.6,39.1l1.6-0.6c0.1,0,0.1,0,0.1-0.1c0-0.1,0-0.2-0.1-0.2l-1.6-0.6c-0.3-0.1-0.5,0-0.5,0h-4.2c-0.4,0-0.5-0.1-0.5-0.1
		l-1.5-2.5h1.2c0,0,0.1,0,0.1-0.1v-0.4c0,0,0-0.1-0.1-0.1h-1.6l-1.3-2h1.4c0,0,0.1,0,0.1-0.1v-0.4c0,0,0-0.1-0.1-0.1h-1.8l-1.9-2.9
		c-0.1-0.1-0.3-0.1-0.3-0.1h0h-0.7c-0.2,0-0.1,0.2-0.1,0.2l2.1,6.7c0.1,0.4,0.2,1,0.2,1v1.2h-1.4c0,0-2.8,0-4.7,0.4l-2.4-2.8
		c0,0-0.1-0.1-0.2-0.1h-0.6l1.1,3.3l-1.1,3.3h0.5c0.2,0,0.2-0.1,0.2-0.1l2.4-2.8c2,0.4,4.7,0.4,4.7,0.4h1.4v1.2c0,0,0,0.5-0.2,1
		l-2.1,6.7c0,0-0.1,0.2,0.1,0.2h0.7h0c0,0,0.1,0,0.3-0.1l1.9-2.9h1.8c0,0,0.1,0,0.1-0.1v-0.4c0,0,0-0.1-0.1-0.1h-1.4l1.3-2h1.6
		c0,0,0.1,0,0.1-0.1v-0.4c0,0,0-0.1-0.1-0.1h-1.2l1.6-2.5c0,0,0-0.1,0.5-0.1h4.2C1623.1,39.1,1623.3,39.1,1623.6,39.1z"/>
	<polygon points="1627.2,44.2 1626.6,43.5 1624,46.1 1621.5,43.5 1620.8,44.2 1623.4,46.8 1620.8,49.3 1621.5,50 1624,47.5 
		1626.6,50 1627.2,49.3 1624.7,46.8 	"/>
</g>
</svg>
