<?xml version="1.0" encoding="utf-8"?>
<!-- Generator: Adobe Illustrator 18.1.1, SVG Export Plug-In . SVG Version: 6.00 Build 0)  -->
<!DOCTYPE svg PUBLIC "-//W3C//DTD SVG 1.1//EN" "http://www.w3.org/Graphics/SVG/1.1/DTD/svg11.dtd">
<svg version="1.1" id="Layer_1" xmlns="http://www.w3.org/2000/svg" xmlns:xlink="http://www.w3.org/1999/xlink" x="0px" y="0px"
	 viewBox="1143.5 23.3 32 32" enable-background="new 1143.5 23.3 32 32" xml:space="preserve">
<path d="M1158.5,29.8l-8.5,0l0,8.5l10.5,10.5l8.5-8.5L1158.5,29.8z M1153,35.2c-0.7-0.7-0.7-1.8,0-2.5c0.7-0.7,1.8-0.7,2.5,0
	c0.7,0.7,0.7,1.8,0,2.5C1154.8,35.9,1153.7,35.9,1153,35.2z M1158.9,42.6l-3.5-3.5l0.8-0.8l3.5,3.5L1158.9,42.6z M1162.3,43
	l-5.4-5.4l0.8-0.8l5.4,5.4L1162.3,43z M1163.9,41.4l-5.4-5.4l0.8-0.8l5.4,5.4L1163.9,41.4z"/>
</svg>
