<?xml version="1.0" encoding="utf-8"?>
<!-- Generator: Adobe Illustrator 18.1.1, SVG Export Plug-In . SVG Version: 6.00 Build 0)  -->
<!DOCTYPE svg PUBLIC "-//W3C//DTD SVG 1.1//EN" "http://www.w3.org/Graphics/SVG/1.1/DTD/svg11.dtd">
<svg version="1.1" id="Layer_1" xmlns="http://www.w3.org/2000/svg" xmlns:xlink="http://www.w3.org/1999/xlink" x="0px" y="0px"
	 viewBox="1700 23.3 32 32" enable-background="new 1700 23.3 32 32" xml:space="preserve">
<path d="M1716,49.8c-8.1-7.9-10.4-10.8-10.9-13.7c-0.6-3.6,2.1-7.3,6.3-7.3c1.8,0,3.5,0.7,4.6,1.9c1.1-1.2,2.8-1.9,4.6-1.9
	c4.2,0,7,3.6,6.3,7.3C1726.4,38.9,1724.3,41.7,1716,49.8z M1711.4,30.9c-1.7,0-3.2,0.9-3.9,2.3c-1.8,3.7,2.3,7.4,8.4,13.5
	c6.2-6.2,10.2-9.9,8.4-13.5c-0.7-1.4-2.1-2.3-3.9-2.3c-2.8,0-3.9,2.2-4.6,3.2C1715.4,33.1,1714.3,30.9,1711.4,30.9z"/>
</svg>
