<?xml version="1.0" encoding="utf-8"?>
<!-- Generator: Adobe Illustrator 18.1.1, SVG Export Plug-In . SVG Version: 6.00 Build 0)  -->
<!DOCTYPE svg PUBLIC "-//W3C//DTD SVG 1.1//EN" "http://www.w3.org/Graphics/SVG/1.1/DTD/svg11.dtd">
<svg version="1.1" id="Layer_1" xmlns="http://www.w3.org/2000/svg" xmlns:xlink="http://www.w3.org/1999/xlink" x="0px" y="0px"
	 viewBox="726.8 23.3 32 32" enable-background="new 726.8 23.3 32 32" xml:space="preserve">
<g>
	<path d="M751.6,41.5c2.3-2.3,3.1-5.7,2.5-8.9c-2.1-0.4-4.3-0.2-6.1,0.7c0.2,0.9,0.3,1.8,0.3,2.7c0,3.2-1.4,6.1-4,8.3
		C747,44.3,749.6,43.4,751.6,41.5z"/>
	<path d="M754.8,38.1c-0.5,1.5-1.3,3-2.5,4.1c-1.9,2-4.5,3-7.4,3h0c-0.1,0-0.3,0-0.4,0c2.1,1.3,4.5,1.9,7,1.3
		c3.1-0.7,5.6-3.1,6.7-6.2C757.2,39.4,756,38.6,754.8,38.1z"/>
	<path d="M733.2,42.2c-1.1-1.2-2-2.6-2.5-4.1c-1.3,0.5-2.5,1.3-3.5,2.3c1.2,3.1,3.6,5.5,6.7,6.2c2.4,0.6,4.9,0,7-1.3
		c-0.1,0-0.3,0-0.4,0C737.7,45.3,735.1,44.2,733.2,42.2z"/>
	<path d="M737.3,35.9c0-0.9,0.1-1.8,0.3-2.7c-1.9-0.9-4-1.1-6.1-0.7c-0.6,3.3,0.2,6.6,2.5,8.9c1.9,2,4.6,2.9,7.3,2.7
		C738.7,42,737.3,39.1,737.3,35.9z"/>
	<path d="M747.2,35.9c0-3.3-1.7-6.2-4.4-8.1c-2.7,1.9-4.4,4.8-4.4,8.1c0,3.3,1.7,6.2,4.4,8.1C745.5,42.1,747.2,39.2,747.2,35.9z"/>
</g>
</svg>
