<?xml version="1.0" encoding="utf-8"?>
<!-- Generator: Adobe Illustrator 18.1.1, SVG Export Plug-In . SVG Version: 6.00 Build 0)  -->
<!DOCTYPE svg PUBLIC "-//W3C//DTD SVG 1.1//EN" "http://www.w3.org/Graphics/SVG/1.1/DTD/svg11.dtd">
<svg version="1.1" id="Layer_1" xmlns="http://www.w3.org/2000/svg" xmlns:xlink="http://www.w3.org/1999/xlink" x="0px" y="0px"
	 viewBox="1004.5 23.3 32 32" enable-background="new 1004.5 23.3 32 32" xml:space="preserve">
<path fill-rule="evenodd" clip-rule="evenodd" d="M1023.3,44.1c-1.4,1-3.1,1.6-5,1.6c-4.8,0-8.7-3.9-8.7-8.7c0-4.8,3.9-8.7,8.7-8.7
	c4.8,0,8.7,3.9,8.7,8.7c0,1.9-0.6,3.6-1.6,5l5.7,5.7c0.6,0.6,0.6,1.5,0,2l0,0c-0.6,0.6-1.5,0.6-2,0L1023.3,44.1L1023.3,44.1
	L1023.3,44.1z M1018.2,43.7c3.7,0,6.6-3,6.6-6.6c0-3.7-3-6.6-6.6-6.6c-3.7,0-6.6,3-6.6,6.6C1011.6,40.7,1014.6,43.7,1018.2,43.7
	L1018.2,43.7L1018.2,43.7z M1018.2,43.7"/>
</svg>
