<?xml version="1.0" encoding="utf-8"?>
<!-- Generator: Adobe Illustrator 18.1.1, SVG Export Plug-In . SVG Version: 6.00 Build 0)  -->
<!DOCTYPE svg PUBLIC "-//W3C//DTD SVG 1.1//EN" "http://www.w3.org/Graphics/SVG/1.1/DTD/svg11.dtd">
<svg version="1.1" id="Layer_1" xmlns="http://www.w3.org/2000/svg" xmlns:xlink="http://www.w3.org/1999/xlink" x="0px" y="0px"
	 viewBox="600 23.3 32 32" enable-background="new 600 23.3 32 32" xml:space="preserve">
<g>
	<path d="M623.1,42.8c1.8-2,2.5-4.8,2-7.5c-1.7-0.4-3.4-0.2-4.9,0.6c0.2,0.7,0.3,1.5,0.3,2.2c0,2.7-1.2,5.2-3.2,7
		C619.4,45.2,621.5,44.5,623.1,42.8z"/>
	<path d="M625.7,40c-0.4,1.3-1.1,2.5-2,3.5c-1.5,1.6-3.7,2.6-6,2.6h0c-0.1,0-0.2,0-0.3,0c1.7,1.1,3.7,1.6,5.6,1.1
		c2.5-0.6,4.5-2.6,5.4-5.2C627.7,41,626.7,40.4,625.7,40z"/>
	<path d="M608.3,43.4c-0.9-1-1.6-2.2-2-3.5c-1,0.4-2,1.1-2.8,1.9c1,2.6,2.9,4.6,5.4,5.2c2,0.5,3.9,0,5.6-1.1c-0.1,0-0.2,0-0.3,0
		C612,46,609.8,45.1,608.3,43.4z"/>
	<path d="M611.6,38.1c0-0.8,0.1-1.5,0.3-2.2c-1.5-0.7-3.2-0.9-5-0.6c-0.5,2.7,0.1,5.6,2,7.5c1.6,1.7,3.7,2.4,5.9,2.3
		C612.7,43.3,611.6,40.8,611.6,38.1z"/>
	<path d="M616,31.3c-2.2,1.6-3.6,4-3.6,6.8c0,2.8,1.4,5.2,3.6,6.8c2.2-1.6,3.6-4,3.6-6.8C619.6,35.3,618.2,32.9,616,31.3z"/>
</g>
</svg>
