<?xml version="1.0" encoding="utf-8"?>
<!-- Generator: Adobe Illustrator 18.1.1, SVG Export Plug-In . SVG Version: 6.00 Build 0)  -->
<!DOCTYPE svg PUBLIC "-//W3C//DTD SVG 1.1//EN" "http://www.w3.org/Graphics/SVG/1.1/DTD/svg11.dtd">
<svg version="1.1" xmlns="http://www.w3.org/2000/svg" xmlns:xlink="http://www.w3.org/1999/xlink" x="0px" y="0px"
	 viewBox="1000 23.3 32 32" enable-background="new 1000 23.3 32 32" xml:space="preserve">
<g id="Layer_2" display="none">
	<g display="inline" opacity="0.1">
		<path d="M1018.9,42.6c0,0.3,0.3,0.6,0.6,0.6c0.3,0,0.6-0.3,0.6-0.6v-2.5c0-0.3-0.3-0.6-0.6-0.6c-0.3,0-0.6,0.3-0.6,0.6V42.6z"/>
		<path d="M1016.9,42.6c0,0.3,0.3,0.6,0.6,0.6c0.3,0,0.6-0.3,0.6-0.6v-2.5c0-0.3-0.3-0.6-0.6-0.6c-0.3,0-0.6,0.3-0.6,0.6V42.6z"/>
		<path d="M1014.9,42.6c0,0.3,0.3,0.6,0.6,0.6c0.3,0,0.6-0.3,0.6-0.6v-2.5c0-0.3-0.3-0.6-0.6-0.6c-0.3,0-0.6,0.3-0.6,0.6V42.6z"/>
		<path d="M1018,38.1c0.5-0.3,0.6-1,0.3-1.5l-2.8-4.8c-0.3-0.5-0.9-0.7-1.4-0.4c-0.5,0.3-0.6,1-0.3,1.5l2.8,4.8
			C1016.8,38.3,1017.5,38.4,1018,38.1z"/>
		<path d="M1014,36.3l1.1,1.9h-3.9l2.8,6.1h6.8l2.8-6.1h-4.2c0.4-0.6,0.3-1.3,0-1.9h7.4v1.9h-0.5c-0.4,0-0.8,0.3-1,0.7l-3.4,7.4
			h-9.1l-3.4-7.4c-0.2-0.4-0.6-0.7-1-0.7h-0.5v-1.9H1014L1014,36.3z"/>
	</g>
</g>
<g id="Layer_1">
	<g>
		<g>
			<path d="M1016,38.1c0.5-0.3,0.6-1,0.3-1.5l-2.8-4.8c-0.3-0.5-0.9-0.7-1.4-0.4c-0.5,0.3-0.6,1-0.3,1.5l2.8,4.8
				C1014.8,38.3,1015.5,38.4,1016,38.1z"/>
			<path d="M1013,38.3l-3.7,0l2.7,6h7l2.7-6h-4.2c0.4-0.6,0.3-1.4,0-2h7.4v2h-0.5c-0.4,0-0.8,0.3-1,0.7l-3.5,7.3h-9l-3.5-7.3
				c-0.2-0.4-0.6-0.7-1-0.7h-0.5l0-2h6L1013,38.3z"/>
		</g>
		<rect x="1013" y="39.3" width="1" height="4"/>
		<rect x="1015" y="39.3" width="1" height="4"/>
		<rect x="1017" y="39.3" width="1" height="4"/>
	</g>
</g>
</svg>
