<?xml version="1.0" encoding="utf-8"?>
<!-- Generator: Adobe Illustrator 18.1.1, SVG Export Plug-In . SVG Version: 6.00 Build 0)  -->
<!DOCTYPE svg PUBLIC "-//W3C//DTD SVG 1.1//EN" "http://www.w3.org/Graphics/SVG/1.1/DTD/svg11.dtd">
<svg version="1.1" id="Layer_1" xmlns="http://www.w3.org/2000/svg" xmlns:xlink="http://www.w3.org/1999/xlink" x="0px" y="0px"
	 viewBox="1000 23.3 32 32" enable-background="new 1000 23.3 32 32" xml:space="preserve">
<path d="M1018.1,42.6c0,0.3,0.3,0.6,0.6,0.6c0.3,0,0.6-0.3,0.6-0.6v-2.5c0-0.3-0.3-0.6-0.6-0.6c-0.3,0-0.6,0.3-0.6,0.6V42.6z
	 M1015.9,42.6c0,0.3,0.3,0.6,0.6,0.6c0.3,0,0.6-0.3,0.6-0.6v-2.5c0-0.3-0.3-0.6-0.6-0.6c-0.3,0-0.6,0.3-0.6,0.6V42.6z M1013.6,42.6
	c0,0.3,0.3,0.6,0.6,0.6c0.3,0,0.6-0.3,0.6-0.6v-2.5c0-0.3-0.3-0.6-0.6-0.6c-0.3,0-0.6,0.3-0.6,0.6V42.6z M1017,38.1
	c0.5-0.3,0.6-1,0.3-1.5l-2.8-4.8c-0.3-0.5-0.9-0.7-1.4-0.4c-0.5,0.3-0.6,1-0.3,1.5l2.8,4.8C1015.8,38.3,1016.5,38.4,1017,38.1z
	 M1013,36.3l1.1,1.9h-3.9l2.8,6.1h6.8l2.8-6.1h-4.2c0.4-0.6,0.3-1.3,0-1.9h7.4v1.9h-0.5c-0.4,0-0.8,0.3-1,0.7l-3.4,7.4h-9.1
	l-3.4-7.4c-0.2-0.4-0.6-0.7-1-0.7h-0.5v-1.9H1013L1013,36.3z"/>
</svg>
