<svg xmlns="http://www.w3.org/2000/svg" xmlns:xlink="http://www.w3.org/1999/xlink" version="1.1" x="0px" y="0px" viewBox="800 123.28 32 32" enable-background="new 800 123.28 32 32" xml:space="preserve"><g id="Layer_2"></g><g id="Layer_1"><g><path d="M825.16 146.49l-5.43-5.43c0.96-1.35 1.53-3 1.53-4.79c0-4.56-3.7-8.26-8.26-8.26c-4.56 0-8.26 3.7-8.26 8.3 c0 4.6 3.7 8.3 8.3 8.26c1.78 0 3.44-0.57 4.79-1.53l5.43 5.43c0.53 0.5 1.4 0.5 1.9 0l0.02-0.02 C825.69 147.9 825.7 147 825.2 146.49z M813 142.59c-3.49 0-6.32-2.83-6.32-6.32c0-3.49 2.83-6.32 6.32-6.32 c3.49 0 6.3 2.8 6.3 6.32C819.32 139.8 816.5 142.6 813 142.59z"/><path d="M816 135.28h-2v-2c0-0.55-0.45-1-1-1s-1 0.45-1 1v2h-2c-0.55 0-1 0.45-1 1s0.45 1 1 1h2v2c0 0.6 0.5 1 1 1s1-0.45 1-1 v-2h2c0.55 0 1-0.45 1-1S816.55 135.3 816 135.28z"/></g></g><g id="Layer_4"></g></svg>