<svg xmlns="http://www.w3.org/2000/svg" version="1.1" x="0" y="0" viewBox="1600 23.3 32 32" enable-background="new 1600 23.28 32 32" xml:space="preserve"><path d="M1614.7 37.6c-0.6-0.4-1-1.1-1-1.8 0-1.2 1-2.2 2.2-2.2 0.8 0 1.5 0.4 1.8 1l2.7-2.7c-1.1-1.3-2.7-2-4.5-2 -3.3 0-6 2.7-6 6.1 0 1.5 0.6 3.2 1.5 5.1L1614.7 37.6zM1615.8 48.9c3.2-5.5 5.8-9.3 6-12.5l-8.4 8.4C1614.1 46.1 1615 47.4 1615.8 48.9z"/><rect x="1602.7" y="38.5" transform="matrix(0.7071 -0.7071 0.7071 0.7071 445.5403 1154.1895)" width="26.7" height="1.6"/></svg>