<svg xmlns="http://www.w3.org/2000/svg" xmlns:xlink="http://www.w3.org/1999/xlink" version="1.1" x="0px" y="0px" viewBox="800 223.28 32 32" enable-background="new 800 223.28 32 32" xml:space="preserve">
<g id="Layer_2">
</g>
<g id="Layer_1">
	<path d="M819 238.28h-2v-2c0-0.55-0.45-1-1-1s-1 0.45-1 1v2h-2c-0.55 0-1 0.45-1 1s0.45 1 1 1h2v2c0 0.6 0.5 1 1 1s1-0.45 1-1v-2 h2c0.55 0 1-0.45 1-1S819.55 238.3 819 238.28z"/>
	<g>
		<path d="M820 231.78c1.93 0 3.5 1.6 3.5 3.5v8c0 1.93-1.57 3.5-3.5 3.5h-8c-1.93 0-3.5-1.57-3.5-3.5v-8c0-1.93 1.57-3.5 3.5-3.5 H820 M820 230.28h-8c-2.75 0-5 2.25-5 5v8c0 2.8 2.2 5 5 5h8c2.75 0 5-2.25 5-5v-8C825 232.5 822.8 230.3 820 230.3 L820 230.28z"/>
	</g>
</g>
<g id="Layer_4">
</g>
</svg>
