<svg xmlns="http://www.w3.org/2000/svg" xmlns:xlink="http://www.w3.org/1999/xlink" version="1.1" x="0px" y="0px" viewBox="1600 23.28 32 32" enable-background="new 1600 23.28 32 32" xml:space="preserve">
<g id="Layer_2">
</g>
<g id="Layer_1">
</g>
<g id="Layer_4">
	<path d="M1627 44.31l-0.68-0.69l-2.6 2.64l-2.6-2.64l-0.68 0.69l2.6 2.64l-2.6 2.64l0.68 0.69l2.6-2.64l2.6 2.64l0.68-0.69 l-2.6-2.64L1627 44.31z"/>
	<path d="M1622 37.28h-4.37l-1.18-2.46h1.22c0.05 0 0.15-0.05 0.15-0.15v-0.39c0-0.05-0.05-0.15-0.15-0.15h-1.66l-1.32-2.02h1.42 c0.05 0 0.15-0.05 0.15-0.15v-0.39c0-0.05-0.05-0.15-0.15-0.15h-1.85l-1.95-3.01c-0.1-0.15-0.29-0.15-0.29-0.15h-0.05h-0.68 c-0.2 0-0.1 0.2-0.1 0.2l2.2 6.86c0.15 0.4 0.2 1 0.2 0.99l-0.1 0.98H1612c0 0-2.73 0.2-4.73 0.65l-2.44-2.91 c0 0-0.1-0.1-0.24-0.1H1604l1 3.36l-1 3.36h0.59c0.15 0 0.24-0.1 0.24-0.1l2.44-2.91c2 0.4 4.7 0.7 4.7 0.65h1.46l0.1 1 c0 0-0.05 0.54-0.2 0.99l-2.2 6.86c0 0-0.1 0.2 0.1 0.2h0.68h0.05c0 0 0.2 0 0.29-0.15l1.95-3.01h1.85c0.1 0 0.15-0.1 0.15-0.15 V44.6c0-0.1-0.1-0.15-0.15-0.15h-1.42l1.32-2.02h1.66c0.1 0 0.15-0.1 0.15-0.15v-0.39c0-0.1-0.1-0.15-0.15-0.15h-1.22l1.18-2.46 h4.37c0 0 3-0.05 3-1S1622 37.3 1622 37.28z"/>
</g>
</svg>
