<?xml version="1.0" encoding="utf-8"?>
<!-- Generator: Adobe Illustrator 18.1.1, SVG Export Plug-In . SVG Version: 6.00 Build 0)  -->
<!DOCTYPE svg PUBLIC "-//W3C//DTD SVG 1.1//EN" "http://www.w3.org/Graphics/SVG/1.1/DTD/svg11.dtd">
<svg version="1.1" id="Layer_1" xmlns="http://www.w3.org/2000/svg" xmlns:xlink="http://www.w3.org/1999/xlink" x="0px" y="0px"
	 viewBox="-109 201 100 100" enable-background="new -109 201 100 100" xml:space="preserve">
<path d="M-24.4,235.4c0-0.1-0.1-0.3-0.2-0.3l0,0l-2.4-0.9c-0.5-0.1-0.7-0.1-0.7-0.1h-6.5c-0.7,0-0.7-0.1-0.7-0.1l-2.4-3.8h1.9
	c0.1,0,0.2-0.1,0.2-0.2v-0.6c0-0.1-0.1-0.2-0.2-0.2h-2.5l-2-3h2.1c0.1,0,0.2-0.1,0.2-0.2v-0.6c0-0.1-0.1-0.2-0.2-0.2h-2.8l-3-4.5
	c-0.1-0.2-0.4-0.2-0.4-0.2h-0.1h-1c-0.3,0-0.1,0.3-0.1,0.3l3.3,10.3c0.2,0.7,0.3,1.5,0.3,1.5v1.8H-44c0,0-4.3,0-7.3,0.7l-3.7-4.4
	c0,0-0.1-0.1-0.4-0.1h-0.9l1.8,5l-1.8,5h0.8c0.3,0,0.4-0.1,0.4-0.1l3.7-4.4c3,0.7,7.3,0.7,7.3,0.7h2.2v1.8c0,0,0,0.8-0.3,1.5
	l-3.3,10.2c0,0-0.1,0.3,0.1,0.3h1h0.1c0,0,0.2,0,0.4-0.2l3-4.5h2.8c0.1,0,0.2-0.1,0.2-0.2v-0.6c0-0.1-0.1-0.2-0.2-0.2h-2.1l2-3h2.5
	c0.1,0,0.2-0.1,0.2-0.2v-0.6c0-0.1-0.1-0.2-0.2-0.2h-1.9l2.5-3.8c0,0,0.1-0.1,0.7-0.1l0,0h6.4c0,0,0.2,0.1,0.7-0.1l2.4-0.9l0,0
	C-24.4,235.7-24.4,235.6-24.4,235.4L-24.4,235.4L-24.4,235.4z"/>
<path d="M-84.4,235.4c0-1.9-1.5-3.3-3.3-3.3s-3.3,1.5-3.3,3.3s1.5,3.3,3.3,3.3S-84.4,237.3-84.4,235.4z M-89.3,235.4
	c0-0.9,0.7-1.6,1.6-1.6c0.9,0,1.6,0.7,1.6,1.6c0,0.9-0.7,1.6-1.6,1.6C-88.5,237-89.3,236.3-89.3,235.4z"/>
<path d="M-59.3,236h-2v-1h2V236z M-63.3,236h-2v-1h2V236z M-67.3,236h-2v-1h2V236z M-71.3,236h-2v-1h2V236z M-75.3,236h-2v-1h2V236z
	 M-79.3,236h-2v-1h2V236z"/>
<text transform="matrix(1 0 0 1 -94.7407 285.4443)" font-family="'HelveticaNeue-Bold'" font-size="3.7037">Created by Yair Cohen</text>
<text transform="matrix(1 0 0 1 -94.7407 289.1479)" font-family="'HelveticaNeue-Bold'" font-size="3.7037">from the Noun Project</text>
<g>
	<path d="M-83.4,263.3v2.8h2.7v0.7h-2.7v2.8h-0.8v-2.8h-2.7v-0.7h2.7v-2.8H-83.4z"/>
</g>
<rect x="-86.9" y="266.1" width="6.2" height="0.7"/>
<polygon points="-66.6,256.4 -67.1,255.9 -69.1,257.9 -71,255.9 -71.5,256.4 -69.6,258.4 -71.5,260.3 -71,260.8 -69.1,258.9 
	-67.1,260.8 -66.6,260.3 -68.5,258.4 "/>
</svg>
