<?xml version="1.0" encoding="utf-8"?>
<!-- Generator: Adobe Illustrator 18.1.1, SVG Export Plug-In . SVG Version: 6.00 Build 0)  -->
<!DOCTYPE svg PUBLIC "-//W3C//DTD SVG 1.1//EN" "http://www.w3.org/Graphics/SVG/1.1/DTD/svg11.dtd">
<svg version="1.1" xmlns="http://www.w3.org/2000/svg" xmlns:xlink="http://www.w3.org/1999/xlink" x="0px" y="0px"
	 viewBox="800 23.3 32 32" enable-background="new 800 23.3 32 32" xml:space="preserve">
<g id="Layer_2">
</g>
<g id="Layer_1">
	<path fill-rule="evenodd" clip-rule="evenodd" d="M818.8,44.1c-1.4,1-3.1,1.6-5,1.6c-4.8,0-8.7-3.9-8.7-8.7c0-4.8,3.9-8.7,8.7-8.7
		c4.8,0,8.7,3.9,8.7,8.7c0,1.9-0.6,3.6-1.6,5l5.7,5.7c0.6,0.6,0.6,1.5,0,2l0,0c-0.6,0.6-1.5,0.6-2,0L818.8,44.1L818.8,44.1
		L818.8,44.1z M813.7,43.7c3.7,0,6.6-3,6.6-6.6c0-3.7-3-6.6-6.6-6.6c-3.7,0-6.6,3-6.6,6.6C807.1,40.7,810.1,43.7,813.7,43.7
		L813.7,43.7L813.7,43.7z M813.7,43.7"/>
</g>
</svg>
