<svg xmlns="http://www.w3.org/2000/svg" version="1.1" x="0" y="0" viewBox="1900 223.28 32 32" enable-background="new 1900 223.28 32 32" xml:space="preserve"><g id="Layer_2"/><g id="Layer_1"><path d="M1916 224.28c-8.28 0-15 6.72-15 15s6.72 15 15 15c8.28 0 15-6.72 15-15S1924.28 224.28 1916 224.28zM1916.89 246.78c-2.13 0-4.17-0.91-5.59-2.5l0.75-0.67c1.23 1.38 3 2.17 4.85 2.17 3.58 0 6.5-2.92 6.5-6.5s-2.92-6.5-6.5-6.5c-3.27 0-5.97 2.43-6.43 5.57l4.05-1.93 0.48 0.94 -5.63 2.71 -2.91-5.54 0.94-0.46 2.1 3.98c0.59-3.55 3.67-6.27 7.39-6.27 4.14 0 7.5 3.36 7.5 7.5S1921.03 246.78 1916.89 246.78z"/></g><g id="Layer_4"/></svg>