<?xml version="1.0" encoding="utf-8"?>
<!-- Generator: Adobe Illustrator 18.1.1, SVG Export Plug-In . SVG Version: 6.00 Build 0)  -->
<!DOCTYPE svg PUBLIC "-//W3C//DTD SVG 1.1//EN" "http://www.w3.org/Graphics/SVG/1.1/DTD/svg11.dtd">
<svg version="1.1" xmlns="http://www.w3.org/2000/svg" xmlns:xlink="http://www.w3.org/1999/xlink" x="0px" y="0px"
	 viewBox="2500 23.3 32 32" enable-background="new 2500 23.3 32 32" xml:space="preserve">
<g id="Layer_2" display="none">
</g>
<g id="Layer_1">
	<g>
		<path d="M2523.5,51.3h-3v-9.5h3.2l0.5-3.5h-3.6V36c0-1,0.4-1.8,1.9-1.8l2.1,0V31c-0.5,0-1.5-0.1-2.8-0.1c-2.8,0-4.7,1.7-4.7,4.8
			v2.6h-3.5v3.5h3.5v9.5h-8.5c-2.5,0-4.5-2-4.5-4.5v-15c0-2.5,2-4.5,4.5-4.5h15c2.5,0,4.5,2,4.5,4.5v15
			C2528,49.3,2526,51.3,2523.5,51.3z"/>
	</g>
</g>
</svg>
