<?xml version="1.0" encoding="utf-8"?>
<!-- Generator: Adobe Illustrator 19.1.0, SVG Export Plug-In . SVG Version: 6.00 Build 0)  -->
<!DOCTYPE svg PUBLIC "-//W3C//DTD SVG 1.1//EN" "http://www.w3.org/Graphics/SVG/1.1/DTD/svg11.dtd">
<svg version="1.1" xmlns="http://www.w3.org/2000/svg" xmlns:xlink="http://www.w3.org/1999/xlink" x="0px" y="0px"
	 viewBox="1600 23.28 32 32" enable-background="new 1600 23.28 32 32" xml:space="preserve">
<g id="Layer_2">
</g>
<g id="Layer_1">
	<g>
		<path d="M1614.66,37.55c-0.61-0.38-1.02-1.06-1.02-1.84c0-1.2,0.97-2.17,2.17-2.17c0.77,0,1.45,0.41,1.84,1.02l2.7-2.7
			c-1.11-1.26-2.73-2.05-4.54-2.05c-3.34,0-6.05,2.71-6.05,6.05c0,1.54,0.56,3.19,1.5,5.09L1614.66,37.55z"/>
		<path d="M1615.81,48.92c3.22-5.52,5.77-9.29,6.03-12.51l-8.44,8.44C1614.14,46.09,1614.95,47.44,1615.81,48.92z"/>
		<rect x="1602.66" y="38.48" transform="matrix(0.7071 -0.7071 0.7071 0.7071 445.5403 1154.1895)" width="26.68" height="1.6"/>
	</g>
</g>
<g id="Layer_4">
</g>
</svg>
