<?xml version="1.0" encoding="utf-8"?>
<!-- Generator: Adobe Illustrator 18.1.1, SVG Export Plug-In . SVG Version: 6.00 Build 0)  -->
<!DOCTYPE svg PUBLIC "-//W3C//DTD SVG 1.1//EN" "http://www.w3.org/Graphics/SVG/1.1/DTD/svg11.dtd">
<svg version="1.1" xmlns="http://www.w3.org/2000/svg" xmlns:xlink="http://www.w3.org/1999/xlink" x="0px" y="0px"
	 viewBox="1600 23.3 32 32" enable-background="new 1600 23.3 32 32" xml:space="preserve">
<g id="Layer_2">
</g>
<g id="Layer_1">
	<g>
		<polygon points="1625.3,40.3 1622.8,42.8 1620.2,40.3 1619.6,40.9 1622.1,43.5 1619.6,46.1 1620.2,46.8 1622.8,44.2 1625.3,46.8 
			1626,46.1 1623.5,43.5 1626,40.9 		"/>
		<path d="M1627,32.8c-0.2-0.6-1.7-0.6-2.3-0.3c-2.2,0.8-4.4,1.7-6.6,2.5l-8-2.7l-0.7,0.9l3.5,3.8c-2.1,0.8-6,2.4-6.7,2.7
			c-0.6,0.2,4,0.7,5,0.4c0,0,13.2-5.1,14.2-5.4C1626,34.5,1627.2,33.5,1627,32.8z"/>
		<polygon points="1604.8,36.9 1604.2,37.5 1605.9,39.4 1608.3,38.4 		"/>
	</g>
</g>
</svg>
