<?xml version="1.0" encoding="utf-8"?>
<!-- Generator: Adobe Illustrator 18.1.1, SVG Export Plug-In . SVG Version: 6.00 Build 0)  -->
<!DOCTYPE svg PUBLIC "-//W3C//DTD SVG 1.1//EN" "http://www.w3.org/Graphics/SVG/1.1/DTD/svg11.dtd">
<svg version="1.1" xmlns="http://www.w3.org/2000/svg" xmlns:xlink="http://www.w3.org/1999/xlink" x="0px" y="0px"
	 viewBox="600 23.3 32 32" enable-background="new 600 23.3 32 32" xml:space="preserve">
<g id="Layer_2">
</g>
<g id="Layer_1">
	<g>
		<path d="M629,29.3h-9.8c-0.8,0-1.6,0.3-2.1,0.9l-1.1,1.1l-1.1-1.1c-0.6-0.6-1.3-0.9-2.1-0.9H603v14h0c0,0,0,0.1,0,0.1v2.9
			c0,1.1,0.9,2,2,2h8c1.1,0,3,2,3,2s1.9-2,3-2h8c1.1,0,2-0.9,2-2v-2.9c0,0,0-0.1,0-0.1h0C629,43.3,629,29.3,629,29.3z M615,47.4
			c0,0.4-0.4,0.7-0.8,0.5l-1.1-0.5c-0.1,0-0.2,0-0.3-0.1H605c-0.6,0-1-0.4-1-1v-16h8c1.1,0,3,1.3,3,2V47.4z M623.9,40.6
			c-1,0.8-1.2,1.3-1.5,1.6c-0.3-0.3-0.6-0.8-1.5-1.6c-0.9-0.8-2.1-1.8-2.1-3.3c0-2.1,2.4-2.9,3.7-1c1.2-2,3.7-1.1,3.7,1
			C626,38.8,624.8,39.9,623.9,40.6z"/>
		<rect x="606" y="42.3" width="7" height="1"/>
		<rect x="606" y="40.3" width="7" height="1"/>
		<rect x="606" y="38.3" width="7" height="1"/>
		<rect x="606" y="36.3" width="7" height="1"/>
		<rect x="608" y="34.3" width="5" height="1"/>
	</g>
</g>
<g id="Layer_4">
</g>
</svg>
