<?xml version="1.0" encoding="utf-8"?>
<!-- Generator: Adobe Illustrator 18.1.1, SVG Export Plug-In . SVG Version: 6.00 Build 0)  -->
<!DOCTYPE svg PUBLIC "-//W3C//DTD SVG 1.1//EN" "http://www.w3.org/Graphics/SVG/1.1/DTD/svg11.dtd">
<svg version="1.1" xmlns="http://www.w3.org/2000/svg" xmlns:xlink="http://www.w3.org/1999/xlink" x="0px" y="0px"
	 viewBox="400 23.3 32 32" enable-background="new 400 23.3 32 32" xml:space="preserve">
<g id="Layer_2">
</g>
<g id="Layer_1">
	<path d="M427.5,44.8c0-2.5-1.7-4.7-4.3-5.8c2-1.4,3.3-3.6,3.3-5.7c0-3.5-4.1-6-7.3-6l0,0h-12.7h-0.2h-1.8v24h1.8h0.2h14v-0.1
		C424.5,50.8,427.5,48.1,427.5,44.8z M419.2,29.3c2.8,0.2,5.2,1.7,5.2,4c0,2.3-2.2,4.8-5,5h-13v-9H419.2z M419.5,49.3h-13v-9h13
		c3.4,0,6,1.8,6,4.5C425.5,47.5,422.9,49.3,419.5,49.3z"/>
</g>
</svg>
