<?xml version="1.0" encoding="utf-8"?>
<!-- Generator: Adobe Illustrator 18.1.1, SVG Export Plug-In . SVG Version: 6.00 Build 0)  -->
<!DOCTYPE svg PUBLIC "-//W3C//DTD SVG 1.1//EN" "http://www.w3.org/Graphics/SVG/1.1/DTD/svg11.dtd">
<svg version="1.1" xmlns="http://www.w3.org/2000/svg" xmlns:xlink="http://www.w3.org/1999/xlink" x="0px" y="0px"
	 viewBox="2700 23.3 32 32" enable-background="new 2700 23.3 32 32" xml:space="preserve">
<g id="Layer_2" display="none">
</g>
<g id="Layer_1">
	<g>
		<path d="M2719.5,45.9c0,1-0.3,1.9-0.8,2.7c-1.6,2.7-5,3.7-8,3.7c-2.3,0-5.2-0.6-6.5-2.8c-0.4-0.6-0.6-1.3-0.6-2
			c0-1.8,1.1-3.2,2.5-4.1c1.8-1.1,4.2-1.4,6.3-1.6c-0.5-0.7-1-1.4-1-2.3c0-0.5,0.1-0.9,0.3-1.3c-0.4,0-0.7,0.1-1.1,0.1
			c-3,0-5.5-2.2-5.5-5.3c0-1.7,0.8-3.4,2.1-4.5c1.7-1.5,4.1-2,6.2-2h6.5l-2.2,1.4h-2c1.5,1.2,2.3,2.6,2.3,4.6c0,4-3.7,4.5-3.7,6.5
			C2714.6,40.8,2719.5,41.5,2719.5,45.9z M2717.2,47.2c0-2.1-2.1-3.4-3.6-4.5c-0.2,0-0.5,0-0.8,0c-2.5,0-6.3,0.8-6.3,4
			c0,3,3.3,4.1,5.8,4.1C2714.7,50.9,2717.2,49.9,2717.2,47.2z M2714.6,36.3c0.6-0.7,0.8-1.6,0.8-2.5c0-2.3-1.4-6.2-4.2-6.2
			c-0.9,0-1.8,0.4-2.3,1.1c-0.6,0.7-0.7,1.6-0.7,2.5c0,2.3,1.3,6,4.1,6C2713.1,37.2,2714,36.8,2714.6,36.3z M2728.4,37.2v1.7h-3.3
			v3.4h-1.6v-3.4h-3.3v-1.7h3.3v-3.4h1.6v3.4H2728.4z"/>
	</g>
</g>
</svg>
