<?xml version="1.0" encoding="utf-8"?>
<!-- Generator: Adobe Illustrator 18.1.1, SVG Export Plug-In . SVG Version: 6.00 Build 0)  -->
<!DOCTYPE svg PUBLIC "-//W3C//DTD SVG 1.1//EN" "http://www.w3.org/Graphics/SVG/1.1/DTD/svg11.dtd">
<svg version="1.1" xmlns="http://www.w3.org/2000/svg" xmlns:xlink="http://www.w3.org/1999/xlink" x="0px" y="0px"
	 viewBox="3000 23.3 32 32" enable-background="new 3000 23.3 32 32" xml:space="preserve">
<g id="Layer_2">
</g>
<g id="Layer_1">
	<g>
		<path d="M3028,48.2c0,1.7-1.4,3.1-3.1,3.1h-17.8c-1.7,0-3.1-1.4-3.1-3.1V30.4c0-1.7,1.4-3.1,3.1-3.1h17.8c1.7,0,3.1,1.4,3.1,3.1
			V48.2z M3025.3,37.4h-2.1c0.2,0.6,0.3,1.3,0.3,2c0,4-3.3,7.2-7.5,7.2c-4.1,0-7.5-3.2-7.5-7.2c0-0.7,0.1-1.4,0.3-2h-2.2v10.1
			c0,0.5,0.4,1,1,1h16.7c0.5,0,1-0.4,1-1V37.4z M3016,34.6c-2.7,0-4.8,2.1-4.8,4.7s2.2,4.7,4.8,4.7c2.7,0,4.8-2.1,4.8-4.7
			S3018.7,34.6,3016,34.6z M3025.3,31c0-0.6-0.5-1.1-1.1-1.1h-2.7c-0.6,0-1.1,0.5-1.1,1.1v2.6c0,0.6,0.5,1.1,1.1,1.1h2.7
			c0.6,0,1.1-0.5,1.1-1.1V31z"/>
	</g>
</g>
<g id="Layer_4">
</g>
</svg>
