<?xml version="1.0" encoding="utf-8"?>
<!-- Generator: Adobe Illustrator 18.1.1, SVG Export Plug-In . SVG Version: 6.00 Build 0)  -->
<!DOCTYPE svg PUBLIC "-//W3C//DTD SVG 1.1//EN" "http://www.w3.org/Graphics/SVG/1.1/DTD/svg11.dtd">
<svg version="1.1" xmlns="http://www.w3.org/2000/svg" xmlns:xlink="http://www.w3.org/1999/xlink" x="0px" y="0px"
	 viewBox="1000 23.3 32 32" enable-background="new 1000 23.3 32 32" xml:space="preserve">
<g id="Layer_2">
</g>
<g id="Layer_1">
	<g>
		<path d="M1024,33.3c-0.1-0.3-2.3-6-7.9-6c-5.6,0-8,5.7-8.1,6h-5l1,11c0,3.3,2.7,6,6,6h12c3.3,0,6-2.7,6-6l1-11H1024z M1016.1,29.3
			c3.4,0,5.4,2.7,6,4h-12C1010.7,32,1012.7,29.3,1016.1,29.3z M1026.5,44.3c0,2.5-2,4.5-4.5,4.5h-12c-2.5,0-4.5-2-4.5-4.5
			c0,0-0.9-9.5-0.9-9.5h22.7C1027.4,34.8,1026.5,44.2,1026.5,44.3z"/>
		<circle cx="1007.5" cy="36.8" r="1.5"/>
		<circle cx="1024.5" cy="36.8" r="1.5"/>
	</g>
</g>
<g id="Layer_4">
</g>
</svg>
