<svg xmlns="http://www.w3.org/2000/svg" xmlns:xlink="http://www.w3.org/1999/xlink" version="1.1" x="0px" y="0px" viewBox="3400 23.3 32 32" enable-background="new 3400 23.3 32 32" xml:space="preserve"><g id="Layer_2"></g><g id="Layer_1"><g><g><path d="M3418.9 48.8c1.6-1.6 2.4-3.7 2.4-5.9s-0.9-4.3-2.4-5.9c-1.3-1.3-2.9-2-4.5-2.3c-0.3 0.7-0.4 1.4-0.4 2.1 c0 0.2 0 0.3 0 0.5c1.1 0.2 2.2 0.7 3.1 1.6c1.1 1.1 1.7 2.5 1.7 4.1c0 1.5-0.6 3-1.7 4.1c-2.3 2.3-5.9 2.3-8.2 0l0 0l0 0 c-2.3-2.3-2.3-5.9 0-8.2c0.4-0.4 0.9-0.7 1.3-1c0-0.4-0.1-0.7-0.1-1.1c0-0.6 0.1-1.2 0.2-1.8c-1.2 0.4-2.3 1.1-3.3 2 c-3.3 3.3-3.3 8.6 0 11.8l0 0l0 0c1.6 1.6 3.7 2.4 5.9 2.4C3415.2 51.3 3417.3 50.4 3418.9 48.8z"/></g><g><g><path d="M3418.1 42.4c-1.1-0.2-2.2-0.7-3.1-1.6c-1.1-1.1-1.7-2.6-1.7-4.1c0-1.5 0.6-3 1.7-4.1c2.3-2.3 5.9-2.3 8.2 0 s2.3 5.9 0 8.2c-0.4 0.4-0.9 0.7-1.3 1c0 0.4 0.1 0.7 0.1 1.1c0 0.6-0.1 1.2-0.2 1.8c1.2-0.4 2.3-1.1 3.3-2 c3.3-3.3 3.3-8.6 0-11.8c-3.3-3.3-8.6-3.3-11.8 0c-1.6 1.6-2.5 3.8-2.5 5.9c0 2.1 0.8 4.3 2.5 5.9c1.3 1.3 2.8 2 4.5 2.3 c0.3-0.6 0.4-1.4 0.4-2.1C3418.1 42.7 3418.1 42.6 3418.1 42.4z"/></g></g><path d="M3410.3 31.2l-0.2-2.1l1.7-1.8l2.1 0.1l0.5 4.2L3410.3 31.2z"/></g></g><g id="Layer_4"></g></svg>