<svg xmlns="http://www.w3.org/2000/svg" xmlns:xlink="http://www.w3.org/1999/xlink" version="1.1" x="0px" y="0px" viewBox="3300 23.3 32 32" enable-background="new 3300 23.3 32 32" xml:space="preserve"><g id="Layer_2"></g><g id="Layer_1"><g><path d="M3327.5 39.3c-2.4-1.4-3.2-2.9-1.5-5.8c-2.8 0-4.2-0.9-4.2-4.2c-2.4 1.4-4.1 1.3-5.8-1.5c-1.4 2.4-2.9 3.2-5.8 1.5 c0 2.8-0.9 4.2-4.2 4.2c1.4 2.4 1.3 4.1-1.5 5.8c2.4 1.4 3.2 2.9 1.5 5.8c2.8 0 4.2 0.9 4.2 4.2c2.4-1.4 4.1-1.3 5.8 1.5 c1.4-2.4 2.9-3.2 5.8-1.5c0-2.8 0.9-4.2 4.2-4.2C3324.6 42.6 3324.7 41 3327.5 39.3z M3316 45.3c-3.3 0-6-2.7-6-6s2.7-6 6-6 s6 2.7 6 6S3319.3 45.3 3316 45.3z"/><circle cx="3316" cy="39.3" r="4"/></g></g><g id="Layer_4"></g></svg>