<?xml version="1.0" encoding="utf-8"?>
<!-- Generator: Adobe Illustrator 18.1.1, SVG Export Plug-In . SVG Version: 6.00 Build 0)  -->
<!DOCTYPE svg PUBLIC "-//W3C//DTD SVG 1.1//EN" "http://www.w3.org/Graphics/SVG/1.1/DTD/svg11.dtd">
<svg version="1.1" xmlns="http://www.w3.org/2000/svg" xmlns:xlink="http://www.w3.org/1999/xlink" x="0px" y="0px"
	 viewBox="300 23.3 32 32" enable-background="new 300 23.3 32 32" xml:space="preserve">
<g id="Layer_2">
</g>
<g id="Layer_1">
	<g>
		<polygon points="330.4,30.4 320.5,30.4 320.5,34.4 330.4,34.4 330.4,30.4 		"/>
		<polygon points="320.5,37.3 320.5,41.3 330.4,41.3 330.4,37.3 330.4,37.3 		"/>
		<polygon points="324.5,44.2 324.5,48.1 330.4,48.1 330.4,44.2 330.4,44.2 		"/>
		<path d="M317.1,44.7c-2.2-0.5-4.9-1.8-4.1-3.5c0.5,0.8,2.1,1.3,3.3,0.6c-3.5-0.9,1.7-7-2.9-10.4c-1.7-1.3-4.1-1.3-5.8,0
			c-4.6,3.4,0.7,9.5-2.9,10.4c1.2,0.7,2.8,0.2,3.3-0.6c0.8,1.7-1.9,3-4.1,3.5c-2.6,0.6-2.4,2.5-2.4,3.5h17.9
			C319.4,47.2,319.6,45.2,317.1,44.7z"/>
	</g>
</g>
</svg>
