<?xml version="1.0" encoding="utf-8"?>
<!-- Generator: Adobe Illustrator 18.1.1, SVG Export Plug-In . SVG Version: 6.00 Build 0)  -->
<!DOCTYPE svg PUBLIC "-//W3C//DTD SVG 1.1//EN" "http://www.w3.org/Graphics/SVG/1.1/DTD/svg11.dtd">
<svg version="1.1" xmlns="http://www.w3.org/2000/svg" xmlns:xlink="http://www.w3.org/1999/xlink" x="0px" y="0px"
	 viewBox="2800 23.3 32 32" enable-background="new 2800 23.3 32 32" xml:space="preserve">
<g id="Layer_2">
</g>
<g id="Layer_1">
	<g>
		<path d="M2826.4,49.9c-0.3,1.1-1.2,2-2.3,2.1c-2.7,0.3-5.4,0.3-8.1,0.3s-5.4,0-8.1-0.3c-1.1-0.1-2.1-1-2.3-2.1
			c-0.4-1.6-0.4-3.4-0.4-5.1c0-1.7,0-3.5,0.4-5.1c0.3-1.1,1.2-2,2.3-2.1c2.7-0.3,5.4-0.3,8-0.3s5.4,0,8.1,0.3c1.1,0.1,2.1,1,2.3,2.1
			c0.4,1.6,0.4,3.4,0.4,5.1C2826.8,46.5,2826.7,48.2,2826.4,49.9z M2811.4,41.2v-1.4h-4.5v1.4h1.5v8.3h1.5v-8.3H2811.4z
			 M2813.8,26.3l-1.8,5.8V36h-1.5v-3.9c-0.1-0.7-0.4-1.7-0.9-3.1c-0.3-0.9-0.6-1.8-0.9-2.7h1.5l1,3.8l1-3.8H2813.8z M2815.3,49.4
			v-7.2h-1.3v5.5c-0.3,0.4-0.6,0.6-0.8,0.6c-0.2,0-0.3-0.1-0.3-0.3c0,0,0-0.2,0-0.5v-5.3h-1.3v5.7c0,0.5,0,0.8,0.1,1.1
			c0.1,0.4,0.4,0.5,0.8,0.5c0.5,0,1-0.3,1.5-0.9v0.8H2815.3z M2817.6,33.6c0,0.8-0.1,1.3-0.4,1.7c-0.4,0.5-0.9,0.7-1.5,0.7
			c-0.7,0-1.2-0.2-1.5-0.7c-0.3-0.4-0.4-0.9-0.4-1.7v-2.5c0-0.8,0.1-1.3,0.4-1.7c0.4-0.5,0.9-0.7,1.5-0.7c0.7,0,1.2,0.2,1.5,0.7
			c0.3,0.4,0.4,0.9,0.4,1.7V33.6z M2816.3,30.8c0-0.7-0.2-1-0.6-1c-0.4,0-0.6,0.3-0.6,1v3c0,0.7,0.2,1,0.6,1c0.4,0,0.6-0.3,0.6-1
			V30.8z M2820.2,44.4c0-0.7,0-1.1-0.1-1.4c-0.2-0.5-0.5-0.8-1-0.8c-0.5,0-0.9,0.3-1.3,0.8v-3.1h-1.3v9.6h1.3v-0.7
			c0.4,0.5,0.9,0.8,1.3,0.8c0.5,0,0.9-0.3,1-0.8c0.1-0.3,0.1-0.8,0.1-1.5V44.4z M2818.9,47.4c0,0.7-0.2,1-0.6,1
			c-0.2,0-0.4-0.1-0.7-0.3v-4.4c0.2-0.2,0.4-0.3,0.7-0.3c0.4,0,0.6,0.3,0.6,1V47.4z M2822.5,36h-1.3v-0.8c-0.5,0.6-1,0.9-1.5,0.9
			c-0.4,0-0.7-0.2-0.9-0.5c-0.1-0.2-0.1-0.6-0.1-1.1v-5.7h1.3v5.3c0,0.3,0,0.5,0,0.5c0,0.2,0.1,0.3,0.3,0.3c0.3,0,0.5-0.2,0.8-0.6
			v-5.5h1.3V36z M2825.1,47h-1.3c0,0.5,0,0.8,0,0.9c-0.1,0.3-0.3,0.5-0.6,0.5c-0.5,0-0.7-0.3-0.7-1v-1.3h2.6v-1.5
			c0-0.8-0.1-1.3-0.4-1.7c-0.4-0.5-0.9-0.7-1.5-0.7c-0.7,0-1.2,0.2-1.6,0.7c-0.3,0.4-0.4,0.9-0.4,1.7v2.5c0,0.8,0.1,1.3,0.4,1.7
			c0.4,0.5,0.9,0.7,1.6,0.7c0.7,0,1.2-0.3,1.6-0.8c0.2-0.2,0.3-0.5,0.3-0.8c0-0.1,0-0.4,0-0.8V47z M2823.9,45h-1.3v-0.7
			c0-0.7,0.2-1,0.7-1s0.7,0.3,0.7,1V45z"/>
	</g>
</g>
<g id="Layer_4">
</g>
</svg>
