<?xml version="1.0" encoding="utf-8"?>
<!-- Generator: Adobe Illustrator 18.1.1, SVG Export Plug-In . SVG Version: 6.00 Build 0)  -->
<!DOCTYPE svg PUBLIC "-//W3C//DTD SVG 1.1//EN" "http://www.w3.org/Graphics/SVG/1.1/DTD/svg11.dtd">
<svg version="1.1" xmlns="http://www.w3.org/2000/svg" xmlns:xlink="http://www.w3.org/1999/xlink" x="0px" y="0px"
	 viewBox="3100 23.3 32 32" enable-background="new 3100 23.3 32 32" xml:space="preserve">
<g id="Layer_2">
</g>
<g id="Layer_1">
	<g>
		<path d="M3121.8,38.3c-1.9,0-3.5-1.9-3.5-4.2c0,2.3-1.5,4.2-3.5,4.2c1.9,0,3.5,1.9,3.5,4.3C3118.4,40.2,3119.9,38.3,3121.8,38.3z"
			/>
		<path d="M3112.9,26.3c0,1.9-1.2,3.4-2.8,3.4c1.5,0,2.8,1.5,2.8,3.4c0-1.9,1.2-3.4,2.8-3.4C3114.2,29.7,3112.9,28.2,3112.9,26.3z"
			/>
		<path d="M3122.5,35.5c0-2.3,1.5-4.1,3.3-4.1c-1.8,0-3.3-1.8-3.3-4.1c0,2.3-1.5,4.1-3.3,4.1C3121,31.5,3122.5,33.3,3122.5,35.5z"/>
		<path d="M3123.1,39c0,3.7-2.4,6.6-5.4,6.6c3,0,5.4,3,5.4,6.6c0-3.7,2.4-6.6,5.4-6.6C3125.5,45.7,3123.1,42.7,3123.1,39z"/>
		<path d="M3108.6,33.6c0,3.4-2.3,6.2-5.1,6.2c2.8,0,5.1,2.8,5.1,6.2c0-3.4,2.3-6.2,5.1-6.2C3110.8,39.9,3108.6,37.1,3108.6,33.6z"
			/>
	</g>
</g>
</svg>
