<?xml version="1.0" encoding="utf-8"?>
<!-- Generator: Adobe Illustrator 18.1.1, SVG Export Plug-In . SVG Version: 6.00 Build 0)  -->
<!DOCTYPE svg PUBLIC "-//W3C//DTD SVG 1.1//EN" "http://www.w3.org/Graphics/SVG/1.1/DTD/svg11.dtd">
<svg version="1.1" xmlns="http://www.w3.org/2000/svg" xmlns:xlink="http://www.w3.org/1999/xlink" x="0px" y="0px"
	 viewBox="2400 23.3 32 32" enable-background="new 2400 23.3 32 32" xml:space="preserve">
<g id="Layer_2">
</g>
<g id="Layer_1">
	<path d="M2416,30.3c-5,0-9,4-9,9s4,9,9,9s9-4,9-9S2421,30.3,2416,30.3z M2416.7,46.8v-2.4h-1.5v2.4c-3.6-0.3-6.4-3.2-6.8-6.8h2.4
		v-1.5h-2.4c0.3-3.6,3.2-6.4,6.8-6.8v2.4h1.5v-2.4c3.6,0.3,6.4,3.2,6.8,6.8h-2.4V40h2.4C2423.2,43.6,2420.3,46.4,2416.7,46.8z"/>
</g>
<g id="Layer_4">
</g>
</svg>
