<?xml version="1.0" encoding="utf-8"?>
<!-- Generator: Adobe Illustrator 18.1.1, SVG Export Plug-In . SVG Version: 6.00 Build 0)  -->
<!DOCTYPE svg PUBLIC "-//W3C//DTD SVG 1.1//EN" "http://www.w3.org/Graphics/SVG/1.1/DTD/svg11.dtd">
<svg version="1.1" xmlns="http://www.w3.org/2000/svg" xmlns:xlink="http://www.w3.org/1999/xlink" x="0px" y="0px"
	 viewBox="900 23.3 32 32" enable-background="new 900 23.3 32 32" xml:space="preserve">
<g id="Layer_2">
</g>
<g id="Layer_1">
	<path d="M915,29.8l-8.5,0l0,8.5L917,48.8l8.5-8.5L915,29.8z M909.5,35.2c-0.7-0.7-0.7-1.8,0-2.5c0.7-0.7,1.8-0.7,2.5,0
		c0.7,0.7,0.7,1.8,0,2.5C911.3,35.9,910.2,35.9,909.5,35.2z M915.4,42.6l-3.5-3.5l0.8-0.8l3.5,3.5L915.4,42.6z M918.8,43l-5.4-5.4
		l0.8-0.8l5.4,5.4L918.8,43z M920.4,41.4L915,36l0.8-0.8l5.4,5.4L920.4,41.4z"/>
</g>
</svg>
