<svg xmlns="http://www.w3.org/2000/svg" xmlns:xlink="http://www.w3.org/1999/xlink" version="1.1" x="0px" y="0px" viewBox="900 23.3 32 32" enable-background="new 900 23.3 32 32" xml:space="preserve"><g></g><g><g><path d="M914.7 32.1c-0.7-0.7-1.6-1.1-2.6-1.1l-0.3 1.1c0.8 0 1.4 0.3 1.9 0.8c0.6 0.6 0.7 1.4 0.2 1.9l-0.7 0.7 c0.1-0.7-0.3-1.4-0.9-2c-0.7-0.7-2-1.1-3-0.1c-1 1-0.7 2.3 0.1 3c0.6 0.6 1.3 0.9 2 0.8l-0.5 0.5l1 1l2.9-2.9 C916.1 34.4 915.7 33.1 914.7 32.1z M912.7 35.9l-0.7 0.7c-0.5 0.1-1.1-0.2-1.5-0.6c-0.5-0.5-0.6-1.3-0.2-1.7 c0.5-0.5 1.2-0.4 1.7 0.1C912.6 34.8 912.8 35.3 912.7 35.9z"/><rect x="914.7" y="37.7" transform="matrix(0.7071 0.7071 -0.7071 0.7071 295.4269 -636.6664)" width="3.1" height="1.2"/><polygon points="919.4,38.7 921.6,40.9 916.5,41.6 915.8,42.3 919.3,45.8 920.2,45 917.9,42.7 923,42.1 923.7,41.3 920.3,37.9"/><path d="M929.2 39.5l-12.6-12.6c-0.4-0.4-0.9-0.6-1.4-0.6H906c-1.1 0-2 0.9-2 2v9.2c0 0.5 0.2 1 0.6 1.4l12.6 12.6 c0.8 0.8 2 0.8 2.8 0l9.2-9.2C930 41.6 930 40.3 929.2 39.5z M927.8 42.3l-7.8 7.8c-0.8 0.8-2 0.8-2.8 0l-11.6-11.6 c-0.4-0.4-0.6-0.9-0.6-1.4v-7.8c0-1.1 0.9-2 2-2h7.8c0.5 0 1 0.2 1.4 0.6l11.6 11.6C928.6 40.3 928.6 41.6 927.8 42.3z"/></g></g><g></g></svg>