<?xml version="1.0" encoding="utf-8"?>
<!-- Generator: Adobe Illustrator 18.1.1, SVG Export Plug-In . SVG Version: 6.00 Build 0)  -->
<!DOCTYPE svg PUBLIC "-//W3C//DTD SVG 1.1//EN" "http://www.w3.org/Graphics/SVG/1.1/DTD/svg11.dtd">
<svg version="1.1" xmlns="http://www.w3.org/2000/svg" xmlns:xlink="http://www.w3.org/1999/xlink" x="0px" y="0px"
	 viewBox="2900 23.3 32 32" enable-background="new 2900 23.3 32 32" xml:space="preserve">
<g id="Layer_2">
</g>
<g id="Layer_1">
	<g>
		<path d="M2916,51.3c-1.2,0-2.3-0.2-3.4-0.5c0.5-0.7,1-1.6,1.2-2.6c0,0,0.1-0.5,0.8-3.3c0.4,0.8,1.6,1.5,2.9,1.5
			c3.9,0,6.5-3.5,6.5-8.2c0-3.5-3-6.9-7.6-6.9c-5.7,0-8.6,4.1-8.6,7.5c0,2.1,0.8,3.9,2.5,4.6c0.3,0.1,0.5,0,0.6-0.3
			c0.1-0.2,0.2-0.7,0.2-1c0.1-0.3,0-0.4-0.2-0.7c-0.5-0.6-0.8-1.3-0.8-2.4c0-3,2.3-5.8,5.9-5.8c3.2,0,5,2,5,4.6
			c0,3.5-1.5,6.4-3.8,6.4c-1.2,0-2.2-1-1.9-2.3c0.4-1.5,1.1-3.2,1.1-4.2c0-1-0.5-1.8-1.6-1.8c-1.3,0-2.3,1.3-2.3,3.1
			c0,0,0,1.1,0.4,1.9c-1.3,5.6-1.5,6.5-1.5,6.5c-0.2,0.9-0.2,1.9-0.2,2.8c-4.2-1.9-7.2-6.1-7.2-11c0-6.6,5.4-12,12-12s12,5.4,12,12
			S2922.6,51.3,2916,51.3z"/>
	</g>
</g>
</svg>
