<svg xmlns="http://www.w3.org/2000/svg" xmlns:xlink="http://www.w3.org/1999/xlink" version="1.2" baseProfile="tiny" x="0px" y="0px" viewBox="400 23.28 32 32" xml:space="preserve"><g></g><g></g><g><g><path d="M409.74 38.57c0.58 0.05 1.23-0.21 1.78-0.38c0.56-0.17 1.13-0.36 1.68-0.56c1.01-0.35 2.01-0.77 2.96-1.27 c0.78-0.41 1.99-0.99 2.4-1.82c0.36-0.73-0.37-1.16-1.03-1.09c-0.17 0.02-0.58 0.09-0.65 0.27c-0.15 0.36 0.43 0.28 0.61 0.32 c0.71 0.17-0.24 0.87-0.48 1.06c-0.8 0.62-1.71 1.12-2.63 1.54c-1.05 0.48-2.13 0.86-3.24 1.19c-0.36 0.11-0.73 0.18-1.1 0.28 C409.9 38.16 409.18 38.53 409.74 38.57z"/><path d="M423.67 39.04c0.67-1.49-2.24-1.8-3.08-1.93c-0.71-0.11-1.57-0.11-2.24-0.39c-0.45-0.19-0.01-0.32 0.28-0.44 c1.59-0.63 3.33-0.87 4.94-1.45c0.77-0.27 3.54-1.29 2.12-2.39c-0.78-0.61-2.32-0.59-3.28-0.47c-0.31 0.04-0.81 0.27-0.22 0.4 c0.54 0.12 1.17-0.04 1.72 0.02c0.37 0.04 1.32 0.14 1.15 0.72c-0.1 0.34-0.58 0.58-0.86 0.73c-1.64 0.9-3.53 1.23-5.28 1.82 c-0.37 0.12-1.79 0.49-1.69 1.09c0.1 0.57 1.5 0.64 1.9 0.71c0.79 0.14 4.35 0.38 2.97 1.84c-1.15 1.22-3.1 1.73-4.62 2.25 c-1.67 0.57-3.35 1.12-5.04 1.64c-2.61 0.8-5.25 1.51-7.91 2.13c-0.6 0.14-1.2 0.28-1.8 0.41c-0.19 0.04-1.54 0.24-1.32 0.54 c0.16 0.22 1.14-0.08 1.34-0.12c0.68-0.13 1.35-0.27 2.02-0.42c3.15-0.7 6.28-1.51 9.38-2.43c2.74-0.81 5.54-1.63 8.06-3.01 C422.74 40 423.39 39.65 423.67 39.04C423.79 38.76 423.38 39.67 423.67 39.04z"/><path d="M430.58 39.12c-0.29-0.88-1.54-1.25-2.33-1.48c-0.87-0.26-1.81-0.36-2.66-0.68c-0.4-0.15-0.5-0.22-0.15-0.52 c0.58-0.49 1.32-0.85 1.98-1.23c0.53-0.31 1.19-0.63 1.59-1.12c0.46-0.57 0.16-1.07-0.51-1.25c-0.24-0.06-0.98-0.24-1.17-0.03 c-0.33 0.38 0.67 0.37 0.86 0.47c0.69 0.34-0.67 1.14-0.94 1.33c-0.82 0.55-1.85 0.97-2.55 1.66c-1.11 1.09 1.49 1.53 2.13 1.68 c0.88 0.21 3.41 0.79 2.28 2.1c-0.44 0.51-1.09 0.86-1.68 1.15c-1.14 0.56-2.35 0.94-3.54 1.34c-0.67 0.23-1.34 0.45-2.01 0.66 c-0.69 0.22-1.39 0.42-2.08 0.64c-0.3 0.1-1.93 0.44-1.95 0.79c-0.01 0.29 1.31-0.17 1.47-0.22c0.78-0.23 1.57-0.46 2.35-0.69 c1.11-0.33 2.23-0.66 3.33-1.01c1.36-0.43 2.77-0.83 4.05-1.49C429.77 40.86 430.89 40.06 430.58 39.12 C430.23 38.04 430.71 39.5 430.58 39.12z"/></g></g></svg>