<?xml version="1.0" encoding="utf-8"?>

<!-- License Agreement at http://iconmonstr.com/license/ -->

<!DOCTYPE svg PUBLIC "-//W3C//DTD SVG 1.1//EN" "http://www.w3.org/Graphics/SVG/1.1/DTD/svg11.dtd">
<svg version="1.1" xmlns="http://www.w3.org/2000/svg" xmlns:xlink="http://www.w3.org/1999/xlink" x="0px" y="0px"
	 width="512px" height="512px" viewBox="0 0 512 512" style="enable-background:new 0 0 512 512;" xml:space="preserve">
<path id="easter-23" d="M341.834,75.75c0,14.216-11.535,25.75-25.75,25.75c-2.867,0-5.583-0.578-8.182-1.45
	c-30.36,38.449-42.514,76.286-51.902,110.351c-9.254-33.545-21.375-71.693-51.902-110.351c-2.582,0.872-5.297,1.45-8.181,1.45
	c-14.216,0-25.75-11.534-25.75-25.75c0-14.216,11.534-25.75,25.75-25.75c14.216,0,25.75,11.534,25.75,25.75
	c0,5.063-1.509,9.757-4.04,13.739c15.038,18.985,28.684,40.108,38.374,65.925c9.689-25.817,23.353-46.94,38.373-65.925
	c-2.514-3.982-4.039-8.676-4.039-13.739c0-14.216,11.533-25.75,25.75-25.75C330.299,50,341.834,61.534,341.834,75.75z M462,152.824
	c0-16.454-1.928-33.705-5.498-51.324c-139.027,0-191.918,100.871-191.918,196c0,76.588,36.06,149.194,75.405,164.5
	c30.646-8.181,65.851-55.172,75.69-100.703c6.555-30.443-0.1-46.454-24.727-62.297c8.398,0.26,25.33-6.303,33.947-16.529
	C440.692,263.721,462,213.653,462,152.824z M410.483,238.674c-4.996,11.383-11.031,20.964-18.14,27.201
	c-10.628,9.362-29.99,19.312-60.217,19.312c31.098,12.455,58.088,38.223,49.924,70.493c-2.129,8.466-4.828,16.194-7.896,23.219
	c-7.041-8.734-15.422-16.681-23.285-21.441c16.58,30.444,9.556,51.433-9.069,63.437c-0.067,0.033-0.134,0.1-0.218,0.134
	c-18.223-17.435-43.051-69.12-43.051-124.928c0-67.058,32.572-143.101,127.795-159.73c2.296,19.581-6.991,36.68-23.772,48.105
	c-5.079,3.454-10.562,6.714-16.312,9.966c14.099,0.738,27.426-2.355,38.273-7.317c-2.851,19.337-15.072,36.219-32.959,45.574
	c-5.7,2.967-11.77,5.675-18.123,8.357C386.627,243.293,399.486,241.96,410.483,238.674z M87.1,282.471
	c8.617,10.227,25.549,16.789,33.948,16.529c-24.627,15.843-31.282,31.854-24.728,62.297c9.841,45.531,45.046,92.522,75.691,100.703
	c39.346-15.306,75.406-87.912,75.406-164.5c0-95.129-52.891-196-191.918-196C51.928,119.12,50,136.37,50,152.824
	C50,213.653,71.308,263.721,87.1,282.471z M138.566,241.055c-6.354-2.682-12.422-5.39-18.122-8.357
	c-17.888-9.354-30.109-26.236-32.959-45.574c10.847,4.962,24.174,8.055,38.273,7.317c-5.75-3.252-11.232-6.513-16.312-9.966
	c-16.781-11.425-26.068-28.524-23.772-48.105c95.222,16.63,127.794,92.673,127.794,159.73c0,55.808-24.828,107.493-43.051,124.928
	c-0.083-0.034-0.151-0.101-0.218-0.134c-18.625-12.004-25.649-32.992-9.069-63.437c-7.863,4.761-16.245,12.707-23.286,21.441
	c-3.068-7.024-5.767-14.753-7.896-23.219c-8.165-32.271,18.826-58.038,49.924-70.493c-30.226,0-49.589-9.95-60.217-19.312
	c-7.108-6.236-13.143-15.818-18.139-27.201C112.514,241.96,125.373,243.293,138.566,241.055z"/>
</svg>
