<?xml version="1.0" encoding="utf-8"?>

<!-- The icon can be used freely in both personal and commercial projects with no attribution required, but always appreciated. 
You may NOT sub-license, resell, rent, redistribute or otherwise transfer the icon without express written permission from iconmonstr.com -->

<!DOCTYPE svg PUBLIC "-//W3C//DTD SVG 1.1//EN" "http://www.w3.org/Graphics/SVG/1.1/DTD/svg11.dtd">
<svg version="1.1" xmlns="http://www.w3.org/2000/svg" xmlns:xlink="http://www.w3.org/1999/xlink" x="0px" y="0px"
	 width="512px" height="512px" viewBox="0 0 512 512" enable-background="new 0 0 512 512" xml:space="preserve">
<path id="book-6-icon" d="M124,88c13.635,0,213.383,0,324,0V50H114c-27.614,0-50,22.387-50,50v312c0,27.615,22.386,50,50,50h334
	V122.529c0,0-308.442,0-324,0C100.389,122.529,100.389,88,124,88z M204.856,259.029c12.026-28.236,40.79-52.35,75.051-52.35
	c61.135,0,56.412,61.975,29.51,80.867c-20.625,14.486-48.774,15.549-72.214,9.93c-1.255,12.449-0.016,32.715,8.513,44.266
	c17.149,23.244,47.383,9.758,63.56-15.889l10.216,10.498c-30.21,46.34-78.923,47.852-106.122,20.004
	C190.118,332.551,191.946,289.35,204.856,259.029z M238.338,285.561c2.87-23.494,13.738-61.289,37.456-61.289
	c20.703,0,18.322,32.184,3.264,48.52C266.563,286.336,246.424,285.561,238.338,285.561z"/>
</svg>
