<?xml version="1.0" encoding="utf-8"?>

<!-- License Agreement at http://iconmonstr.com/license/ -->

<!DOCTYPE svg PUBLIC "-//W3C//DTD SVG 1.1//EN" "http://www.w3.org/Graphics/SVG/1.1/DTD/svg11.dtd">
<svg version="1.1" xmlns="http://www.w3.org/2000/svg" xmlns:xlink="http://www.w3.org/1999/xlink" x="0px" y="0px"
	 width="512px" height="512px" viewBox="0 0 512 512" style="enable-background:new 0 0 512 512;" xml:space="preserve">
<path id="diamond-8" d="M343.091,101.5l74.384,87.828L256.075,389.964L94.694,188.247l75.389-86.747H343.091z M359,67.166H154.434
	L50,187.333l206,257.501l206-256.067L359,67.166z M316.084,127.25c-8.769,28.793-31.3,51.315-60.084,60.1
	c28.784,8.776,51.315,31.299,60.084,60.066c8.783-28.775,31.314-51.29,60.082-60.066
	C347.398,178.557,324.867,156.043,316.084,127.25z M238.816,240.141c-5.004,16.429-17.896,29.312-34.316,34.334
	c16.454,5.029,29.312,17.887,34.35,34.333c5.013-16.429,17.879-29.304,34.308-34.333
	C256.729,269.471,243.863,256.578,238.816,240.141z M178.75,145.724c-6.253,20.545-22.364,36.639-42.9,42.909
	c20.57,6.286,36.647,22.371,42.934,42.925c6.261-20.554,22.372-36.639,42.883-42.925
	C201.156,182.379,185.045,166.277,178.75,145.724z"/>
</svg>
