<?xml version="1.0" standalone="no"?>
<!DOCTYPE svg PUBLIC "-//W3C//DTD SVG 1.1//EN" "http://www.w3.org/Graphics/SVG/1.1/DTD/svg11.dtd" >
<svg xmlns="http://www.w3.org/2000/svg">
<metadata>Generated by IcoMoon</metadata>
<defs>
<font id="bb-if" horiz-adv-x="1024">
<font-face units-per-em="1024" ascent="960" descent="-64" />
<missing-glyph horiz-adv-x="1024" />
<glyph unicode="&#x20;" d="" horiz-adv-x="512" />
<glyph unicode="&#x2630;" d="M288 224v64h640v-64h-640zM288 416v64h640v-64h-640zM288 608v64h640v-64h-640zM96 448l-99.2-102.4 25.6-25.6 140.8 144-137.6 144-25.6-22.4 99.2-105.6v-32z" />
<glyph unicode="&#xe600;" d="M496 428.8l-102.4 99.2-25.6-22.4 144-137.6 144 137.6-22.4 22.4-102.4-99.2h-35.2z" />
<glyph unicode="&#xe601;" d="M560 278.4c-76.8 16-166.4 60.8-140.8 118.4 16-28.8 70.4-44.8 112-19.2-121.6 32 57.6 240-99.2 358.4-57.6 41.6-140.8 44.8-198.4 0-156.8-118.4 22.4-326.4-99.2-358.4 41.6-25.6 96-6.4 112 19.2 25.6-57.6-64-102.4-140.8-118.4-86.4-19.2-80-86.4-80-118.4h608c6.4 32 12.8 99.2-73.6 118.4z" />
<glyph unicode="&#xe602;" d="M768 640c-3.2 9.6-73.6 192-252.8 192s-256-182.4-259.2-192h-160l32-352c0-105.6 86.4-192 192-192h384c105.6 0 192 86.4 192 192l32 352h-160zM515.2 768c108.8 0 172.8-86.4 192-128h-384c19.2 41.6 83.2 128 192 128zM848 288c0-80-64-144-144-144h-384c-80 0-144 64-144 144 0 0-28.8 304-28.8 304h726.4c3.2 0-25.6-300.8-25.6-304zM288 528c0-26.51-21.49-48-48-48s-48 21.49-48 48c0 26.51 21.49 48 48 48s48-21.49 48-48zM832 528c0-26.51-21.49-48-48-48s-48 21.49-48 48c0 26.51 21.49 48 48 48s48-21.49 48-48z" />
<glyph unicode="&#xe603;" d="M928 768h-313.6c-25.6 0-51.2-9.6-67.2-28.8l-35.2-35.2-35.2 35.2c-19.2 19.2-41.6 28.8-67.2 28.8h-313.6v-448c0 0 0-3.2 0-3.2v-92.8c0-35.2 28.8-64 64-64h256c35.2 0 96-64 96-64s60.8 64 96 64h256c35.2 0 64 28.8 64 64v92.8c0 0 0 3.2 0 3.2v0c0 0 0 448 0 448zM480 188.8c0-12.8-12.8-22.4-25.6-16l-35.2 16c-3.2 0-6.4 0-9.6 3.2h-249.6c-19.2 0-32 12.8-32 32v512h256c35.2 0 96-41.6 96-64v-483.2zM764.8 406.4c-32-25.6-38.4-41.6-48-51.2-9.6 9.6-19.2 25.6-48 51.2s-67.2 57.6-67.2 105.6c0 67.2 76.8 92.8 118.4 32 38.4 64 118.4 35.2 118.4-32-6.4-48-44.8-83.2-73.6-105.6zM192 352h224v-32h-224v32zM192 416h224v-32h-224v32zM192 480h224v-32h-224v32zM192 544h224v-32h-224v32zM256 608h160v-32h-160v32z" />
<glyph unicode="&#xe604;" d="M311.68 470.72c18.56-1.6 39.36 6.72 56.96 12.16 17.92 5.44 36.16 11.52 53.76 17.92 32.32 11.2 64.32 24.64 94.72 40.64 24.96 13.12 63.68 31.68 76.8 58.24 11.52 23.36-11.84 37.12-32.96 34.88-5.44-0.64-18.56-2.88-20.8-8.64-4.8-11.52 13.76-8.96 19.52-10.24 22.72-5.44-7.68-27.84-15.36-33.92-25.6-19.84-54.72-35.84-84.16-49.28-33.6-15.36-68.16-27.52-103.68-38.080-11.52-3.52-23.36-5.76-35.2-8.96-4.48-1.6-27.52-13.44-9.6-14.72zM757.44 455.68c21.44 47.68-71.68 57.6-98.56 61.76-22.72 3.52-50.24 3.52-71.68 12.48-14.4 6.080-0.32 10.24 8.96 14.080 50.88 20.16 106.56 27.84 158.080 46.4 24.64 8.64 113.28 41.28 67.84 76.48-24.96 19.52-74.24 18.88-104.96 15.040-9.92-1.28-25.92-8.64-7.040-12.8 17.28-3.84 37.44 1.28 55.040-0.64 11.84-1.28 42.24-4.48 36.8-23.040-3.2-10.88-18.56-18.56-27.52-23.36-52.48-28.8-112.96-39.36-168.96-58.24-11.84-3.84-57.28-15.68-54.080-34.88 3.2-18.24 48-20.48 60.8-22.72 25.28-4.48 139.2-12.16 95.040-58.88-36.8-39.040-99.2-55.36-147.84-72-53.44-18.24-107.2-35.84-161.28-52.48-83.52-25.6-168-48.32-253.12-68.16-19.2-4.48-38.4-8.96-57.6-13.12-6.080-1.28-49.28-7.68-42.24-17.28 5.12-7.040 36.48 2.56 42.88 3.84 21.76 4.16 43.2 8.64 64.64 13.44 100.8 22.4 200.96 48.32 300.16 77.76 87.68 25.92 177.28 52.16 257.92 96.32 16.96 9.28 37.76 20.48 46.72 40 3.84 8.96-9.28-20.16 0 0zM978.56 453.12c-9.28 28.16-49.28 40-74.56 47.36-27.84 8.32-57.92 11.52-85.12 21.76-12.8 4.8-16 7.040-4.8 16.64 18.56 15.68 42.24 27.2 63.36 39.36 16.96 9.92 38.080 20.16 50.88 35.84 14.72 18.24 5.12 34.24-16.32 40-7.68 1.92-31.36 7.68-37.44 0.96-10.56-12.16 21.44-11.84 27.52-15.040 22.080-10.88-21.44-36.48-30.080-42.56-26.24-17.6-59.2-31.040-81.6-53.12-35.52-34.88 47.68-48.96 68.16-53.76 28.16-6.72 109.12-25.28 72.96-67.2-14.080-16.32-34.88-27.52-53.76-36.8-36.48-17.92-75.2-30.080-113.28-42.88-21.44-7.36-42.88-14.4-64.32-21.12-22.080-7.040-44.48-13.44-66.56-20.48-9.6-3.2-61.76-14.080-62.4-25.28-0.32-9.28 41.92 5.44 47.040 7.040 24.96 7.36 50.24 14.72 75.2 22.080 35.52 10.56 71.36 21.12 106.56 32.32 43.52 13.76 88.64 26.56 129.6 47.68 23.040 11.52 58.88 37.12 48.96 67.2-11.2 34.56 4.16-12.16 0 0z" />
<glyph unicode="&#xe605;" d="M438.4 678.4c-22.4 22.4-51.2 35.2-83.2 35.2l-9.6-35.2c25.6 0 44.8-9.6 60.8-25.6 19.2-19.2 22.4-44.8 6.4-60.8l-22.4-22.4c3.2 22.4-9.6 44.8-28.8 64-22.4 22.4-64 35.2-96 3.2s-22.4-73.6 3.2-96c19.2-19.2 41.6-28.8 64-25.6l-16-16 32-32 92.8 92.8c41.6 44.8 28.8 86.4-3.2 118.4zM374.4 556.8l-22.4-22.4c-16-3.2-35.2 6.4-48 19.2-16 16-19.2 41.6-6.4 54.4 16 16 38.4 12.8 54.4-3.2 19.2-12.8 25.6-28.8 22.4-48zM465.715 528.78l70.144-70.144-27.153-27.153-70.144 70.144 27.153 27.153zM588.8 467.2l70.4-70.4-163.2-22.4-22.4-22.4 112-112 28.8 25.6-73.6 73.6 163.2 19.2 22.4 25.6-108.8 108.8zM902.4 441.6l-403.2 403.2c-12.8 12.8-28.8 19.2-44.8 19.2h-294.4c-35.2 0-64-28.8-64-64v-294.4c0-16 6.4-32 19.2-44.8l403.2-403.2c25.6-25.6 64-25.6 89.6 0l294.4 294.4c25.6 22.4 25.6 64 0 89.6zM857.6 352l-249.6-249.6c-25.6-25.6-64-25.6-89.6 0l-371.2 371.2c-12.8 12.8-19.2 28.8-19.2 44.8v249.6c0 35.2 28.8 64 64 64h249.6c16 0 32-6.4 44.8-19.2l371.2-371.2c25.6-25.6 25.6-67.2 0-89.6z" />
<glyph unicode="&#xe606;" d="M531.2 432l-99.2-102.4 22.4-25.6 137.6 144-137.6 144-22.4-22.4 99.2-102.4v-35.2z" />
<glyph unicode="&#xe607;" d="M492.8 464l99.2 102.4-22.4 22.4-137.6-144 137.6-144 22.4 25.6-99.2 102.4v35.2z" />
<glyph unicode="&#xe608;" d="M601.6 310.4c-44.8-32-99.2-51.2-160-51.2-153.6 0-278.4 124.8-278.4 278.4s124.8 278.4 278.4 278.4c153.6 0 278.4-124.8 278.4-278.4 0-60.8-19.2-115.2-51.2-160l182.4-182.4c19.2-19.2 19.2-48 0-64v0c-19.2-19.2-48-19.2-64 0l-185.6 179.2zM438.4 323.2c118.4 0 211.2 96 211.2 211.2 0 118.4-96 211.2-211.2 211.2-118.4 0-211.2-96-211.2-211.2s96-211.2 211.2-211.2v0 0z" />
<glyph unicode="&#xe609;" d="M694.4 608l-25.6 22.4-156.8-160-156.8 160-25.6-22.4 160-160-160-156.8 25.6-22.4 156.8 156.8 156.8-156.8 25.6 22.4-160 156.8z" />
<glyph unicode="&#xe60a;" d="M864 287.040l-21.76 22.080-83.2-84.48-83.2 84.48-21.76-22.080 83.2-84.48-83.2-84.48 21.76-22.080 83.2 84.48 83.2-84.48 21.76 22.080-83.2 84.48 83.2 84.48zM704 512h-139.84l-37.76 78.72h39.040c1.6 0 4.8 1.6 4.8 4.8v12.48c0 1.6-1.6 4.8-4.8 4.8h-53.12l-42.24 64.64h45.44c1.6 0 4.8 1.6 4.8 4.8v12.48c0 1.6-1.6 4.8-4.8 4.8h-59.2l-62.4 96.32c-3.2 4.8-9.28 4.8-9.28 4.8h-23.36c-6.4 0-3.2-6.4-3.2-6.4l70.4-219.52c4.8-12.8 6.4-32 6.4-31.68l-3.2-31.36h-47.68c0 0-87.36-6.4-151.36-20.8l-78.080 93.12c0 0-3.2 3.2-7.68 3.2h-18.88l32-107.52-32-107.52h18.88c4.8 0 7.68 3.2 7.68 3.2l78.080 93.12c64-12.8 150.4-22.4 150.4-20.8h46.72l3.2-32c0 0-1.6-17.28-6.4-31.68l-70.4-219.52c0 0-3.2-6.4 3.2-6.4h23.36c0 0 6.4 0 9.28 4.8l62.4 96.32h59.2c3.2 0 4.8 3.2 4.8 4.8v13.76c0 3.2-3.2 4.8-4.8 4.8h-45.44l42.24 64.64h53.12c3.2 0 4.8 3.2 4.8 4.8v12.48c0 3.2-3.2 4.8-4.8 4.8h-39.040l37.76 78.72h139.84c0 0 96 1.6 96 32s-94.080 31.36-94.080 32z" />
<glyph unicode="&#xe60b;" d="M774.4 636.8c0 0-32 41.6-121.6 41.6-105.6 0-140.8-105.6-140.8-105.6s-35.2 105.6-140.8 105.6c-89.6 0-121.6-41.6-121.6-41.6s-41.6-28.8-41.6-108.8c0-80 76.8-147.2 128-192 54.4-44.8 176-115.2 176-115.2s121.6 70.4 176 115.2c54.4 44.8 128 112 128 192 0 76.8-41.6 108.8-41.6 108.8z" />
<glyph unicode="&#xe60c;" d="M512 633.6l108.8-336-284.8 208h352l-284.8-208z" />
<glyph unicode="&#xe60d;" d="M656 604.8c-124.8-44.8-198.4-169.6-220.8-211.2-38.4 51.2-83.2 76.8-86.4 80l-32-54.4c0 0 70.4-44.8 102.4-124.8l60.8 22.4c0 3.2 80 182.4 201.6 227.2l-25.6 60.8z" />
<glyph unicode="&#xe60e;" d="M793.6 355.2l38.4-179.2-188.8 32-323.2 307.2 150.4 144 323.2-304zM438.4 556.8l281.6-268.8 32 32-281.6 268.8-32-32zM192 640l83.2-76.8 150.4 144-83.2 76.8-150.4-144z" />
<glyph unicode="&#xe60f;" d="M739.2 467.2v-243.2h-163.2v131.2h-128v-131.2h-166.4v243.2h-57.6l288 300.8 288-300.8h-60.8zM704 742.4h-67.2v-57.6l67.2-70.4v128z" />
<glyph unicode="&#xe610;" d="M800 700.8l-35.2 35.2-252.8-252.8-252.8 252.8-35.2-35.2 252.8-252.8-252.8-252.8 35.2-35.2 252.8 252.8 252.8-252.8 35.2 35.2-252.8 252.8z" />
<glyph unicode="&#xe611;" d="M425.6 857.6l-118.4-86.4 230.4-323.2-230.4-323.2 118.4-86.4 291.2 409.6-291.2 409.6z" />
<glyph unicode="&#xe612;" d="M307.2 448l291.2-409.6 118.4 86.4-230.4 323.2 230.4 323.2-118.4 86.4-291.2-409.6z" />
<glyph unicode="&#xe613;" d="M512 736c-160 0-288-128-288-288s128-288 288-288 288 128 288 288-128 288-288 288zM534.4 208v76.8h-48v-76.8c-115.2 9.6-204.8 102.4-217.6 217.6h76.8v48h-76.8c9.6 115.2 102.4 204.8 217.6 217.6v-76.8h48v76.8c115.2-9.6 204.8-102.4 217.6-217.6h-76.8v-48h76.8c-9.6-115.2-102.4-204.8-217.6-217.6z" />
<glyph unicode="&#xe614;" d="M528 467.2l102.4-99.2 25.6 22.4-144 137.6-144-137.6 25.6-22.4 102.4 99.2h32z" />
<glyph unicode="&#xe615;" d="M752 64h-96v304h102.4l16 112h-115.2v73.6c0 32 12.8 57.6 60.8 57.6h67.2v102.4c-16 0-48 3.2-89.6 3.2-89.6 0-150.4-54.4-150.4-153.6v-83.2h-112v-112h112v-304h-272c-80 0-144 64-144 144v480c0 80 64 144 144 144h480c80 0 144-64 144-144v-480c-3.2-80-67.2-144-147.2-144z" />
<glyph unicode="&#xe616;" d="M825.6 608c0-6.4 0-12.8 0-22.4 0-214.4-163.2-460.8-460.8-460.8-92.8 0-176 25.6-249.6 73.6 12.8 0 25.6-3.2 38.4-3.2 76.8 0 144 25.6 201.6 70.4-70.4 0-131.2 48-150.4 112 9.6 0 19.2-3.2 32-3.2 16 0 28.8 3.2 41.6 6.4-73.6 16-128 80-128 160 0 0 0 0 0 3.2 22.4-12.8 48-19.2 73.6-19.2-44.8 28.8-70.4 80-70.4 134.4 0 28.8 6.4 57.6 22.4 80 80-99.2 198.4-163.2 332.8-169.6-3.2 12.8-3.2 25.6-3.2 38.4 0 89.6 70.4 160 160 160 48 0 89.6-19.2 118.4-51.2 35.2 6.4 70.4 19.2 102.4 38.4-12.8-38.4-38.4-70.4-70.4-89.6 32 3.2 64 12.8 92.8 25.6-25.6-32-51.2-57.6-83.2-83.2z" />
<glyph unicode="&#xe617;" d="M624 236.8c0-32-9.6-60.8-25.6-86.4-51.2-86.4-160-118.4-256-118.4-73.6 0-166.4 19.2-208 89.6-12.8 19.2-19.2 41.6-19.2 64 0 57.6 35.2 102.4 80 131.2 57.6 35.2 134.4 44.8 201.6 51.2-16 22.4-32 44.8-32 73.6 0 16 3.2 28.8 9.6 41.6-12.8 0-22.4-3.2-35.2-3.2-96 0-176 70.4-176 169.6 0 54.4 25.6 108.8 67.2 144 54.4 48 131.2 64 198.4 64h208l-70.4-44.8h-64c48-38.4 73.6-83.2 73.6-147.2 0-128-118.4-144-118.4-208 9.6-57.6 166.4-80 166.4-220.8zM550.4 195.2c0 67.2-67.2 108.8-115.2 144-6.4 0-16 0-25.6 0-80 0-201.6-25.6-201.6-128 0-96 105.6-131.2 185.6-131.2 76.8-3.2 156.8 28.8 156.8 115.2zM467.2 544c19.2 22.4 25.6 51.2 25.6 80 0 73.6-44.8 198.4-134.4 198.4-28.8 0-57.6-12.8-73.6-35.2-19.2-22.4-22.4-51.2-22.4-80 0-73.6 41.6-192 131.2-192 25.6 0 54.4 12.8 73.6 28.8zM908.8 515.2v-54.4h-105.6v-108.8h-51.2v108.8h-105.6v54.4h105.6v108.8h51.2v-108.8h105.6z" />
<glyph unicode="&#xe618;" d="M828.8 108.8c-9.6-35.2-38.4-64-73.6-67.2-86.4-9.6-172.8-9.6-259.2-9.6s-172.8 0-259.2 9.6c-35.2 3.2-67.2 32-73.6 67.2-12.8 51.2-12.8 108.8-12.8 163.2s0 112 12.8 163.2c9.6 35.2 38.4 64 73.6 67.2 86.4 9.6 172.8 9.6 256 9.6s172.8 0 259.2-9.6c35.2-3.2 67.2-32 73.6-67.2 12.8-51.2 12.8-108.8 12.8-163.2 3.2-54.4 0-108.8-9.6-163.2zM348.8 387.2v44.8h-144v-44.8h48v-265.6h48v265.6h48zM425.6 864l-57.6-185.6v-124.8h-48v124.8c-3.2 22.4-12.8 54.4-28.8 99.2-9.6 28.8-19.2 57.6-28.8 86.4h48l32-121.6 32 121.6h51.2zM473.6 124.8v230.4h-41.6v-176c-9.6-12.8-19.2-19.2-25.6-19.2s-9.6 3.2-9.6 9.6c0 0 0 6.4 0 16v169.6h-41.6v-182.4c0-16 0-25.6 3.2-35.2 3.2-12.8 12.8-16 25.6-16 16 0 32 9.6 48 28.8v-25.6h41.6zM547.2 630.4c0-25.6-3.2-41.6-12.8-54.4-12.8-16-28.8-22.4-48-22.4-22.4 0-38.4 6.4-48 22.4-9.6 12.8-12.8 28.8-12.8 54.4v80c0 25.6 3.2 41.6 12.8 54.4 12.8 16 28.8 22.4 48 22.4 22.4 0 38.4-6.4 48-22.4 9.6-12.8 12.8-28.8 12.8-54.4v-80zM505.6 720c0 22.4-6.4 32-19.2 32s-19.2-9.6-19.2-32v-96c0-22.4 6.4-32 19.2-32s19.2 9.6 19.2 32v96zM630.4 284.8c0 22.4 0 35.2-3.2 44.8-6.4 16-16 25.6-32 25.6s-28.8-9.6-41.6-25.6v99.2h-41.6v-307.2h41.6v22.4c12.8-16 28.8-25.6 41.6-25.6 16 0 28.8 9.6 32 25.6 3.2 9.6 3.2 25.6 3.2 48v92.8zM588.8 188.8c0-22.4-6.4-32-19.2-32-6.4 0-12.8 3.2-22.4 9.6v140.8c6.4 6.4 12.8 9.6 22.4 9.6 12.8 0 19.2-9.6 19.2-32v-96zM704 553.6h-41.6v25.6c-16-19.2-32-28.8-48-28.8-12.8 0-22.4 6.4-28.8 16-3.2 6.4-3.2 19.2-3.2 35.2v182.4h41.6v-169.6c0-9.6 0-16 0-16 0-6.4 3.2-9.6 9.6-9.6 9.6 0 16 6.4 25.6 19.2v176h41.6v-230.4zM787.2 201.6h-41.6c0-16 0-25.6 0-28.8-3.2-9.6-9.6-16-19.2-16-16 0-22.4 9.6-22.4 32v41.6h83.2v48c0 25.6-3.2 41.6-12.8 54.4-12.8 16-28.8 22.4-48 22.4-22.4 0-38.4-6.4-51.2-22.4-9.6-12.8-12.8-28.8-12.8-54.4v-80c0-25.6 3.2-41.6 12.8-54.4 12.8-16 28.8-22.4 51.2-22.4s38.4 9.6 51.2 25.6c6.4 6.4 9.6 16 9.6 25.6 0 3.2 0 12.8 0 25.6v3.2zM748.8 265.6h-41.6v22.4c0 22.4 6.4 32 22.4 32s22.4-9.6 22.4-32v-22.4z" />
<glyph unicode="&#xe619;" d="M512 64c-38.4 0-73.6 6.4-108.8 16 16 22.4 32 51.2 38.4 83.2 0 0 3.2 16 25.6 105.6 12.8-25.6 51.2-48 92.8-48 124.8 0 208 112 208 262.4 0 112-96 220.8-243.2 220.8-182.4 0-275.2-131.2-275.2-240 0-67.2 25.6-124.8 80-147.2 9.6-3.2 16 0 19.2 9.6 3.2 6.4 6.4 22.4 6.4 32 3.2 9.6 0 12.8-6.4 22.4-16 19.2-25.6 41.6-25.6 76.8 0 96 73.6 185.6 188.8 185.6 102.4 0 160-64 160-147.2 0-112-48-204.8-121.6-204.8-38.4 0-70.4 32-60.8 73.6 12.8 48 35.2 102.4 35.2 134.4s-16 57.6-51.2 57.6c-41.6 0-73.6-41.6-73.6-99.2 0 0 0-35.2 12.8-60.8-41.6-179.2-48-208-48-208-6.4-28.8-6.4-60.8-6.4-89.6-134.4 60.8-230.4 195.2-230.4 352 0 211.2 172.8 384 384 384s384-172.8 384-384-172.8-387.2-384-387.2z" />
<glyph unicode="&#xe61a;" d="M896 163.2c0-54.4-44.8-99.2-99.2-99.2h-569.6c-54.4 0-99.2 44.8-99.2 99.2v569.6c0 54.4 44.8 99.2 99.2 99.2h569.6c54.4 0 99.2-44.8 99.2-99.2v-569.6zM809.6 508.8h-67.2c6.4-19.2 9.6-41.6 9.6-64 0-128-105.6-230.4-240-230.4-131.2 0-240 102.4-240 230.4 0 22.4 3.2 44.8 9.6 64h-70.4v-323.2c0-16 12.8-32 32-32h534.4c16 0 32 12.8 32 32v323.2zM512 598.4c-86.4 0-153.6-67.2-153.6-150.4s70.4-150.4 153.6-150.4c86.4 0 153.6 67.2 153.6 150.4s-67.2 150.4-153.6 150.4zM809.6 713.6c0 19.2-16 35.2-35.2 35.2h-86.4c-19.2 0-35.2-16-35.2-35.2v-83.2c0-19.2 16-35.2 35.2-35.2h86.4c19.2 0 35.2 16 35.2 35.2v83.2z" />
<glyph unicode="&#xe61b;" d="M665.6 464c-60.8 0-112 60.8-112 134.4 0-73.6-48-134.4-112-134.4 60.8 0 112-60.8 112-137.6 3.2 76.8 51.2 137.6 112 137.6zM380.8 848c0-60.8-38.4-108.8-89.6-108.8 48 0 89.6-48 89.6-108.8 0 60.8 38.4 108.8 89.6 108.8-48 0-89.6 48-89.6 108.8zM688 553.6c0 73.6 48 131.2 105.6 131.2-57.6 0-105.6 57.6-105.6 131.2 0-73.6-48-131.2-105.6-131.2 57.6-3.2 105.6-60.8 105.6-131.2zM707.2 441.6c0-118.4-76.8-211.2-172.8-211.2 96 0 172.8-96 172.8-211.2 0 118.4 76.8 211.2 172.8 211.2-96-3.2-172.8 92.8-172.8 211.2zM243.2 614.4c0-108.8-73.6-198.4-163.2-198.4 89.6 0 163.2-89.6 163.2-198.4 0 108.8 73.6 198.4 163.2 198.4-92.8-3.2-163.2 86.4-163.2 198.4z" />
<glyph unicode="&#xe61c;" d="M880 448c-76.8 44.8-102.4 92.8-48 185.6-89.6 0-134.4 28.8-134.4 134.4-76.8-44.8-131.2-41.6-185.6 48-44.8-76.8-92.8-102.4-185.6-48 0-89.6-28.8-134.4-134.4-134.4 44.8-76.8 41.6-131.2-48-185.6 76.8-44.8 102.4-92.8 48-185.6 89.6 0 134.4-28.8 134.4-134.4 76.8 44.8 131.2 41.6 185.6-48 44.8 76.8 92.8 102.4 185.6 48 0 89.6 28.8 134.4 134.4 134.4-44.8 80-41.6 131.2 48 185.6zM512 256c-105.6 0-192 86.4-192 192s86.4 192 192 192 192-86.4 192-192-86.4-192-192-192zM640 448c0-70.692-57.308-128-128-128s-128 57.308-128 128c0 70.692 57.308 128 128 128s128-57.308 128-128z" />
<glyph unicode="&#xe61d;" d="M192 576l192-192h256v-96l192 192-192 192v-96h-448z" />
<glyph unicode="&#xe61e;" d="M604.8 144c51.2 51.2 76.8 118.4 76.8 188.8s-28.8 137.6-76.8 188.8c-41.6 41.6-92.8 64-144 73.6-9.6-22.4-12.8-44.8-12.8-67.2 0-6.4 0-9.6 0-16 35.2-6.4 70.4-22.4 99.2-51.2 35.2-35.2 54.4-80 54.4-131.2 0-48-19.2-96-54.4-131.2-73.6-73.6-188.8-73.6-262.4 0v0 0c-73.6 73.6-73.6 188.8 0 262.4 12.8 12.8 28.8 22.4 41.6 32 0 12.8-3.2 22.4-3.2 35.2 0 19.2 3.2 38.4 6.4 57.6-38.4-12.8-73.6-35.2-105.6-64-105.6-105.6-105.6-275.2 0-377.6v0 0c51.2-51.2 118.4-76.8 188.8-76.8 73.6-3.2 140.8 25.6 192 76.8zM579.2 348.8c-35.2 6.4-70.4 22.4-99.2 51.2-35.2 35.2-54.4 83.2-54.4 131.2s19.2 96 54.4 131.2c73.6 73.6 188.8 73.6 262.4 0s73.6-188.8 0-262.4c-12.8-12.8-28.8-22.4-41.6-32 0-12.8 3.2-22.4 3.2-35.2 0-19.2-3.2-38.4-6.4-57.6 38.4 12.8 73.6 35.2 105.6 64 105.6 105.6 105.6 275.2 0 377.6-105.6 105.6-275.2 105.6-377.6 0-51.2-51.2-80-121.6-80-188.8s25.6-137.6 80-188.8c41.6-41.6 89.6-64 144-73.6 9.6 19.2 12.8 44.8 12.8 67.2-3.2 6.4-3.2 9.6-3.2 16zM329.6 707.2l-6.4 67.2 54.4 57.6 67.2-3.2 16-134.4-131.2 12.8z" />
<glyph unicode="&#xe61f;" d="M384 224v64h640v-64h-640zM384 416v64h640v-64h-640zM384 608v64h640v-64h-640zM159.68 418.24l-104 97.92-24-24.32 144-139.52 144 138.88-24 25.6-104-99.2h-32z" />
<glyph unicode="&#xe620;" d="M384 224v64h640v-64h-640zM384 416v64h640v-64h-640zM384 608v64h640v-64h-640zM191.68 480l104-97.92 24 24.32-144 139.52-144-138.88 24-25.6 104 97.92h32z" />
<glyph unicode="&#xe621;" d="M805.12 217.28l-173.76 173.76c30.72 43.2 48.96 96 48.96 153.28 0 145.92-118.4 264.32-264.32 264.32s-264.32-118.4-264.32-265.6c0-147.2 118.4-265.6 265.6-264.32 56.96 0 110.080 18.24 153.28 48.96l173.76-173.76c16.96-16 44.8-16 60.8 0l0.64 0.64c16.32 17.6 16.64 46.4 0.64 62.72zM416 342.080c-111.68 0-202.24 90.56-202.24 202.24s90.56 202.24 202.24 202.24c111.68 0 201.6-89.6 201.6-202.24 0.64-112.96-89.6-202.56-201.6-202.24zM512 576h-64v64c0 17.6-14.4 32-32 32s-32-14.4-32-32v-64h-64c-17.6 0-32-14.4-32-32s14.4-32 32-32h64v-64c0-19.2 16-32 32-32s32 14.4 32 32v64h64c17.6 0 32 14.4 32 32s-14.4 31.36-32 32z" />
<glyph unicode="&#xe622;" d="M608 480h-64v64c0 17.6-14.4 32-32 32s-32-14.4-32-32v-64h-64c-17.6 0-32-14.4-32-32s14.4-32 32-32h64v-64c0-19.2 16-32 32-32s32 14.4 32 32v64h64c17.6 0 32 14.4 32 32s-14.4 31.36-32 32zM640 688c61.76 0 112-51.2 112-112v-256c0-61.76-50.24-112-112-112h-256c-61.76 0-112 50.24-112 112v256c0 61.76 50.24 112 112 112h256zM640 736h-256c-88 0-160-72-160-160v-256c0-89.6 70.4-160 160-160h256c88 0 160 72 160 160v256c0 88.96-70.4 159.36-160 159.36v0.64z" />
</font>
</defs>
</svg>
